<svg width="34" height="34" viewBox="0 0 34 34" fill="none" xmlns="http://www.w3.org/2000/svg">
<path d="M7.96875 13.0156C7.96875 17.9828 12.0328 22.0469 17 22.0469C21.9672 22.0469 26.0312 17.9828 26.0312 13.0156C26.0312 8.04844 21.9672 3.98438 17 3.98438C12.0328 3.98438 7.96875 8.04844 7.96875 13.0156ZM23.9062 13.0156C23.9062 16.8141 20.7984 19.9219 17 19.9219C13.2016 19.9219 10.0938 16.8141 10.0938 13.0156C10.0938 9.21719 13.2016 6.10938 17 6.10938C20.7984 6.10938 23.9062 9.21719 23.9062 13.0156Z" fill="black"/>
<path d="M6.48123 31.7156C9.29685 28.9 13.0156 27.3594 17 27.3594C20.9844 27.3594 24.7031 28.9 27.5187 31.7156L29.0328 30.2016C25.8187 27.0141 21.5422 25.2344 17 25.2344C12.4578 25.2344 8.18123 27.0141 4.96716 30.2016L6.48123 31.7156Z" fill="black"/>
</svg>
