<svg width="234" height="235" viewBox="0 0 234 235" fill="none" xmlns="http://www.w3.org/2000/svg">
<path d="M224 117.458C224 175.9 176.178 223.427 117 223.427C57.8219 223.427 10 175.9 10 117.458C10 59.0163 57.8219 11.489 117 11.489C176.178 11.489 224 59.0163 224 117.458Z" stroke="#CDCDCD" stroke-opacity="0.2" stroke-width="20"/>
<mask id="mask0_190_140" style="mask-type:alpha" maskUnits="userSpaceOnUse" x="1" y="0" width="232" height="235">
<mask id="path-2-inside-1_190_140" fill="white">
<path d="M116.537 0.459063C140.259 0.365116 163.44 7.61318 182.953 21.2257C202.465 34.8382 217.371 54.1603 225.66 76.5858C233.949 99.0114 235.221 123.462 229.307 146.639C223.392 169.816 210.574 190.605 192.581 206.202C174.589 221.799 152.288 231.453 128.686 233.863C105.084 236.273 81.3171 231.323 60.5902 219.68C39.8632 208.037 23.1736 190.261 12.7723 168.75C2.37105 147.239 -1.24144 123.028 2.42206 99.3816L117 117.458L116.537 0.459063Z"/>
</mask>
<path d="M116.537 0.459063C140.259 0.365116 163.44 7.61318 182.953 21.2257C202.465 34.8382 217.371 54.1603 225.66 76.5858C233.949 99.0114 235.221 123.462 229.307 146.639C223.392 169.816 210.574 190.605 192.581 206.202C174.589 221.799 152.288 231.453 128.686 233.863C105.084 236.273 81.3171 231.323 60.5902 219.68C39.8632 208.037 23.1736 190.261 12.7723 168.75C2.37105 147.239 -1.24144 123.028 2.42206 99.3816L117 117.458L116.537 0.459063Z" stroke="url(#paint0_linear_190_140)" stroke-width="40" mask="url(#path-2-inside-1_190_140)"/>
</mask>
<g mask="url(#mask0_190_140)">
<path d="M116.576 10.459C175.018 10.2275 222.734 57.8609 222.968 117.038C223.203 176.216 175.865 224.226 117.424 224.457C58.9823 224.689 11.266 177.055 11.0317 117.878C10.7973 58.7002 58.1348 10.6904 116.576 10.459Z" stroke="url(#paint1_linear_190_140)" stroke-width="20"/>
</g>
<path d="M60.6224 141.248C62.6544 139.616 64.2464 138.28 65.3984 137.24C66.5504 136.184 67.5184 135.088 68.3024 133.952C69.1024 132.8 69.5024 131.672 69.5024 130.568C69.5024 129.528 69.2464 128.712 68.7344 128.12C68.2384 127.512 67.4304 127.208 66.3104 127.208C65.2224 127.208 64.3744 127.552 63.7664 128.24C63.1744 128.912 62.8544 129.816 62.8064 130.952H60.6944C60.7584 129.16 61.3024 127.776 62.3264 126.8C63.3504 125.824 64.6704 125.336 66.2864 125.336C67.9344 125.336 69.2384 125.792 70.1984 126.704C71.1744 127.616 71.6624 128.872 71.6624 130.472C71.6624 131.8 71.2624 133.096 70.4624 134.36C69.6784 135.608 68.7824 136.712 67.7744 137.672C66.7664 138.616 65.4784 139.72 63.9104 140.984H72.1664V142.808H60.6224V141.248ZM74.1631 139.136V137.48L82.5871 125.816H85.2031V137.24H87.6031V139.136H85.2031V143H83.0431V139.136H74.1631ZM83.1391 128.096L76.6831 137.24H83.1391V128.096ZM89.7849 134.144C89.7849 131.392 90.2329 129.248 91.1289 127.712C92.0249 126.16 93.5929 125.384 95.8329 125.384C98.0569 125.384 99.6169 126.16 100.513 127.712C101.409 129.248 101.857 131.392 101.857 134.144C101.857 136.944 101.409 139.12 100.513 140.672C99.6169 142.224 98.0569 143 95.8329 143C93.5929 143 92.0249 142.224 91.1289 140.672C90.2329 139.12 89.7849 136.944 89.7849 134.144ZM99.6969 134.144C99.6969 132.752 99.6009 131.576 99.4089 130.616C99.2329 129.64 98.8569 128.856 98.2809 128.264C97.7209 127.672 96.9049 127.376 95.8329 127.376C94.7449 127.376 93.9129 127.672 93.3369 128.264C92.7769 128.856 92.4009 129.64 92.2089 130.616C92.0329 131.576 91.9449 132.752 91.9449 134.144C91.9449 135.584 92.0329 136.792 92.2089 137.768C92.4009 138.744 92.7769 139.528 93.3369 140.12C93.9129 140.712 94.7449 141.008 95.8329 141.008C96.9049 141.008 97.7209 140.712 98.2809 140.12C98.8569 139.528 99.2329 138.744 99.4089 137.768C99.6009 136.792 99.6969 135.584 99.6969 134.144ZM115.919 127.544H107.495V133.016C107.863 132.504 108.407 132.088 109.127 131.768C109.847 131.432 110.623 131.264 111.455 131.264C112.783 131.264 113.863 131.544 114.695 132.104C115.527 132.648 116.119 133.36 116.471 134.24C116.839 135.104 117.023 136.024 117.023 137C117.023 138.152 116.807 139.184 116.375 140.096C115.943 141.008 115.279 141.728 114.383 142.256C113.503 142.784 112.407 143.048 111.095 143.048C109.415 143.048 108.055 142.616 107.015 141.752C105.975 140.888 105.343 139.736 105.119 138.296H107.255C107.463 139.208 107.903 139.92 108.575 140.432C109.247 140.944 110.095 141.2 111.119 141.2C112.383 141.2 113.335 140.824 113.975 140.072C114.615 139.304 114.935 138.296 114.935 137.048C114.935 135.8 114.615 134.84 113.975 134.168C113.335 133.48 112.391 133.136 111.143 133.136C110.295 133.136 109.551 133.344 108.911 133.76C108.287 134.16 107.831 134.712 107.543 135.416H105.479V125.624H115.919V127.544ZM127.63 143L122.47 137.192V143H120.286V125.24H122.47V135.68L127.534 129.848H130.582L124.39 136.4L130.606 143H127.63ZM131.821 136.4C131.821 135.04 132.093 133.856 132.637 132.848C133.181 131.824 133.933 131.032 134.893 130.472C135.869 129.912 136.981 129.632 138.229 129.632C139.845 129.632 141.173 130.024 142.213 130.808C143.269 131.592 143.965 132.68 144.301 134.072H141.949C141.725 133.272 141.285 132.64 140.629 132.176C139.989 131.712 139.189 131.48 138.229 131.48C136.981 131.48 135.973 131.912 135.205 132.776C134.437 133.624 134.053 134.832 134.053 136.4C134.053 137.984 134.437 139.208 135.205 140.072C135.973 140.936 136.981 141.368 138.229 141.368C139.189 141.368 139.989 141.144 140.629 140.696C141.269 140.248 141.709 139.608 141.949 138.776H144.301C143.949 140.12 143.245 141.2 142.189 142.016C141.133 142.816 139.813 143.216 138.229 143.216C136.981 143.216 135.869 142.936 134.893 142.376C133.933 141.816 133.181 141.024 132.637 140C132.093 138.976 131.821 137.776 131.821 136.4ZM146.399 136.376C146.399 135.032 146.671 133.856 147.215 132.848C147.759 131.824 148.503 131.032 149.447 130.472C150.407 129.912 151.471 129.632 152.639 129.632C153.791 129.632 154.791 129.88 155.639 130.376C156.487 130.872 157.119 131.496 157.535 132.248V129.848H159.743V143H157.535V140.552C157.103 141.32 156.455 141.96 155.591 142.472C154.743 142.968 153.751 143.216 152.615 143.216C151.447 143.216 150.391 142.928 149.447 142.352C148.503 141.776 147.759 140.968 147.215 139.928C146.671 138.888 146.399 137.704 146.399 136.376ZM157.535 136.4C157.535 135.408 157.335 134.544 156.935 133.808C156.535 133.072 155.991 132.512 155.303 132.128C154.631 131.728 153.887 131.528 153.071 131.528C152.255 131.528 151.511 131.72 150.839 132.104C150.167 132.488 149.631 133.048 149.231 133.784C148.831 134.52 148.631 135.384 148.631 136.376C148.631 137.384 148.831 138.264 149.231 139.016C149.631 139.752 150.167 140.32 150.839 140.72C151.511 141.104 152.255 141.296 153.071 141.296C153.887 141.296 154.631 141.104 155.303 140.72C155.991 140.32 156.535 139.752 156.935 139.016C157.335 138.264 157.535 137.392 157.535 136.4ZM165.618 125.24V143H163.434V125.24H165.618Z" fill="white"/>
<g clip-path="url(#clip0_190_140)">
<g filter="url(#filter0_d_190_140)">
<g filter="url(#filter1_d_190_140)">
<path d="M120.438 59.8125L102.562 80.4375L114.938 81.8125L113.562 94.1875L131.438 73.5625L119.062 72.1875L120.438 59.8125Z" stroke="white" stroke-width="3" stroke-linecap="round" stroke-linejoin="round" shape-rendering="crispEdges"/>
</g>
</g>
</g>
<rect x="95.5" y="55.5" width="43" height="43" stroke="#191A23"/>
<defs>
<filter id="filter0_d_190_140" x="97.0625" y="58.3125" width="39.875" height="45.375" filterUnits="userSpaceOnUse" color-interpolation-filters="sRGB">
<feFlood flood-opacity="0" result="BackgroundImageFix"/>
<feColorMatrix in="SourceAlpha" type="matrix" values="0 0 0 0 0 0 0 0 0 0 0 0 0 0 0 0 0 0 127 0" result="hardAlpha"/>
<feOffset dy="4"/>
<feGaussianBlur stdDeviation="2"/>
<feComposite in2="hardAlpha" operator="out"/>
<feColorMatrix type="matrix" values="0 0 0 0 0 0 0 0 0 0 0 0 0 0 0 0 0 0 0.25 0"/>
<feBlend mode="normal" in2="BackgroundImageFix" result="effect1_dropShadow_190_140"/>
<feBlend mode="normal" in="SourceGraphic" in2="effect1_dropShadow_190_140" result="shape"/>
</filter>
<filter id="filter1_d_190_140" x="97.0625" y="58.3125" width="39.875" height="45.375" filterUnits="userSpaceOnUse" color-interpolation-filters="sRGB">
<feFlood flood-opacity="0" result="BackgroundImageFix"/>
<feColorMatrix in="SourceAlpha" type="matrix" values="0 0 0 0 0 0 0 0 0 0 0 0 0 0 0 0 0 0 127 0" result="hardAlpha"/>
<feOffset dy="4"/>
<feGaussianBlur stdDeviation="2"/>
<feComposite in2="hardAlpha" operator="out"/>
<feColorMatrix type="matrix" values="0 0 0 0 0 0 0 0 0 0 0 0 0 0 0 0 0 0 0.25 0"/>
<feBlend mode="normal" in2="BackgroundImageFix" result="effect1_dropShadow_190_140"/>
<feBlend mode="normal" in="SourceGraphic" in2="effect1_dropShadow_190_140" result="shape"/>
</filter>
<linearGradient id="paint0_linear_190_140" x1="1.03177" y1="117.917" x2="232.968" y2="116.999" gradientUnits="userSpaceOnUse">
<stop stop-color="#31D6D6"/>
<stop offset="1" stop-color="#31D6D6" stop-opacity="0.8"/>
</linearGradient>
<linearGradient id="paint1_linear_190_140" x1="1.03177" y1="117.917" x2="232.968" y2="116.999" gradientUnits="userSpaceOnUse">
<stop offset="0.693" stop-color="#B9FF66"/>
<stop offset="1" stop-color="white"/>
</linearGradient>
<clipPath id="clip0_190_140">
<rect x="95" y="55" width="44" height="44" fill="white"/>
</clipPath>
</defs>
</svg>
