<svg width="64" height="55" viewBox="0 0 64 55" fill="none" xmlns="http://www.w3.org/2000/svg">
<g clip-path="url(#clip0_119_455)">
<path d="M31.6989 42.1251L31.6975 42.125C30.3571 42.0776 29.4353 41.5589 28.7698 40.7944C28.099 40.0238 27.6822 38.996 27.3745 37.9234C27.221 37.3882 27.0956 36.8455 26.9788 36.3217C26.9586 36.2309 26.9386 36.1406 26.9187 36.051C26.8244 35.6253 26.7336 35.215 26.636 34.8399C26.518 34.3863 26.3879 33.9753 26.2251 33.6422C26.0899 33.3656 25.9268 33.1315 25.7187 32.9733C26.1923 32.2091 26.7957 31.5492 27.6496 30.8877H27.6609C30.2325 31.211 32.8054 31.2136 35.1696 30.8948C36.0349 31.563 36.745 32.2151 37.1023 32.9583C36.5065 33.3445 36.141 34.1115 35.8619 34.9976C35.6695 35.6085 35.5106 36.304 35.3498 37.0085C35.2608 37.398 35.1713 37.7903 35.075 38.1726C34.8015 39.2591 34.4724 40.2756 33.9503 41.0074C33.4355 41.7291 32.7361 42.1714 31.6989 42.1251Z" fill="#F3F3F3" stroke="#191A23" stroke-width="0.3"/>
<path fill-rule="evenodd" clip-rule="evenodd" d="M50.0068 18.7445C50.7251 18.4838 51.587 18.7445 51.8743 19.3964C52.1615 20.0482 51.8743 20.8304 51.156 21.0912L44.9075 23.5029C44.1894 23.7636 43.3275 23.5029 43.0402 22.8511C42.7529 22.1993 43.0402 21.4171 43.7584 21.1564L50.0068 18.7445Z" fill="#ACB5BC"/>
<path fill-rule="evenodd" clip-rule="evenodd" d="M32.0514 4.92547C31.9795 4.86028 31.9077 4.7951 31.8358 4.66474C31.7641 4.72993 31.6922 4.7951 31.6204 4.92547L15.7479 20.8952C15.2451 21.4167 14.3114 21.4819 13.7368 20.9604C13.1624 20.5041 13.0905 19.6567 13.6651 19.1352L29.5376 3.16554C30.0403 2.64407 30.9741 2.57889 31.5486 3.10035C31.6922 3.16554 31.7641 3.2959 31.8358 3.42627C31.9077 3.2959 31.9795 3.16554 32.1231 3.10035C32.6977 2.64407 33.6314 2.64407 34.1341 3.16554L50.0067 19.1352C50.5094 19.6567 50.5094 20.5041 49.9348 20.9604C49.3604 21.4167 48.4266 21.4167 47.9239 20.8952L32.0514 4.92547Z" fill="#191A23"/>
<path fill-rule="evenodd" clip-rule="evenodd" d="M42.1785 15.1597C42.1067 14.4427 42.753 13.856 43.5431 13.7908C44.3332 13.7256 44.9795 14.3123 45.0514 15.0293L45.4822 22.3297C45.5541 23.0467 44.9077 23.6334 44.1176 23.6985C43.3276 23.7637 42.6813 23.1772 42.6095 22.4601L42.1785 15.1597Z" fill="#B9FF66"/>
<path fill-rule="evenodd" clip-rule="evenodd" d="M12.6599 21.0912C11.9417 20.8304 11.5826 20.0482 11.9417 19.3964C12.229 18.7446 13.0908 18.4187 13.8091 18.7446L20.0575 21.1564C20.7757 21.4171 21.1348 22.1992 20.7757 22.8511C20.4884 23.5029 19.6266 23.8288 18.9083 23.5029L12.6599 21.0912Z" fill="#ACB5BC"/>
<path d="M24.2725 26.2288L24.2723 26.2288C24.3781 26.677 24.5892 27.0426 24.8414 27.2794C25.0939 27.5165 25.3828 27.6208 25.6489 27.5604L24.2725 26.2288ZM24.2725 26.2288L24.2714 26.2253M24.2725 26.2288L24.2714 26.2253M24.2714 26.2253C24.1302 25.777 24.1314 25.3643 24.2352 25.0501M24.2714 26.2253L24.2352 25.0501M26.1858 25.7956L26.1859 25.7955C26.0801 25.3474 25.869 24.9818 25.6168 24.745C25.3643 24.5079 25.0753 24.4036 24.8092 24.4639L26.1858 25.7956ZM26.1858 25.7956L26.1869 25.7991M26.1858 25.7956L26.1869 25.7991M26.1869 25.7991C26.328 26.2474 26.3269 26.6601 26.223 26.9742M26.1869 25.7991L26.223 26.9742M24.2352 25.0501C24.339 24.7362 24.5434 24.5243 24.8092 24.4639L24.2352 25.0501ZM26.223 26.9742C26.1192 27.2882 25.9148 27.5001 25.6489 27.5604L26.223 26.9742Z" fill="#F3F3F3" stroke="#191A23" stroke-width="0.1"/>
<path d="M37.3062 27.6907L37.3062 27.6907C37.5706 27.7507 37.8593 27.6322 38.1132 27.3859C38.3661 27.1405 38.5772 26.7743 38.683 26.3588C38.7892 25.9086 38.7882 25.4944 38.6927 25.1793C38.5973 24.8646 38.4103 24.6544 38.1459 24.5943L37.3062 27.6907ZM37.3062 27.6907C37.0418 27.6308 36.8548 27.4205 36.7594 27.1058C36.6639 26.7907 36.6629 26.3765 36.7691 25.9264M37.3062 27.6907L36.7691 25.9264M36.7691 25.9264C36.8748 25.5108 37.0859 25.1447 37.3389 24.8993C37.5928 24.653 37.8816 24.5344 38.1459 24.5943L36.7691 25.9264Z" fill="#F3F3F3" stroke="#191A23" stroke-width="0.1"/>
<path d="M45.1378 33.6223L45.7642 37.7284L45.7643 37.7305L45.7656 37.7572C45.7666 37.781 45.768 37.8165 45.769 37.8628C45.7711 37.9553 45.7719 38.0905 45.7669 38.2593C45.757 38.597 45.7239 39.0684 45.6311 39.6017C45.445 40.6715 45.0219 41.9741 44.0816 42.9537L44.0614 42.9748L44.0506 43.002L44.1899 43.0576L44.0506 43.002L44.0505 43.0021L44.0502 43.0028L44.0491 43.0055L44.0447 43.0165L44.0272 43.0599C44.0117 43.098 43.9887 43.1541 43.959 43.2259C43.8995 43.3695 43.8128 43.5757 43.7044 43.826C43.4873 44.3265 43.1832 45.0024 42.8345 45.7041C42.4856 46.4065 42.0936 47.1319 41.7009 47.7329C41.3038 48.3407 40.9205 48.7981 40.5944 48.9904L40.5533 49.0147L40.5338 49.0582L40.6706 49.1196C40.5338 49.0582 40.5338 49.0582 40.5338 49.0583L40.5337 49.0584L40.5335 49.0589L40.5329 49.0602L40.5309 49.0647L40.5237 49.0815C40.5176 49.096 40.5088 49.1171 40.4979 49.1447C40.476 49.1998 40.4454 49.2805 40.4097 49.3848C40.3385 49.5934 40.247 49.8964 40.1649 50.2776C40.0079 51.0057 39.8843 52.0203 40.0009 53.2065H31.5493H22.954C23.0705 52.0203 22.947 51.0057 22.7901 50.2776C22.7079 49.8964 22.6165 49.5934 22.5453 49.3848C22.5096 49.2805 22.479 49.1998 22.4571 49.1447C22.4462 49.1171 22.4374 49.096 22.4313 49.0815L22.4241 49.0648L22.4221 49.0602L22.4215 49.0589L22.4213 49.0584L22.4213 49.0583C22.4212 49.0582 22.4212 49.0582 22.2844 49.1196L22.4212 49.0582L22.4017 49.0147L22.3606 48.9904C22.0344 48.7981 21.6512 48.3407 21.254 47.7329C20.8613 47.1319 20.4693 46.4065 20.1203 45.7041C19.7717 45.0024 19.4676 44.3265 19.2505 43.826C19.142 43.5757 19.0554 43.3695 18.9959 43.2259C18.9661 43.1541 18.9432 43.098 18.9277 43.0599L18.9102 43.0165L18.9057 43.0055L18.9046 43.0028L18.9044 43.0021L18.9043 43.002L18.765 43.0576L18.9043 43.002L18.8929 42.9735L18.8713 42.9518C17.8969 41.9726 17.4741 40.6714 17.2971 39.6029C17.2088 39.0701 17.1823 38.5992 17.1779 38.2617C17.1757 38.0931 17.179 37.9581 17.1828 37.8657C17.1847 37.8195 17.1868 37.784 17.1883 37.7602L17.1902 37.7336L17.1903 37.7324L17.9575 33.6178L24.7362 33.1692L24.7791 33.1664L24.814 33.1412L27.0217 31.5501C27.0424 31.7191 27.0913 31.883 27.1459 32.0658C27.1676 32.1382 27.1901 32.2136 27.2121 32.2935C27.3253 32.7047 27.4491 33.2942 27.4491 34.3232C27.4491 35.3965 27.8891 37.0174 28.5974 38.3689C28.9523 39.0461 29.379 39.6645 29.8598 40.1157C30.3401 40.5663 30.8867 40.8611 31.4774 40.8611C32.0681 40.8611 32.6148 40.5663 33.0951 40.1157C33.5759 39.6645 34.0026 39.0461 34.3575 38.3689C35.0657 37.0174 35.5058 35.3965 35.5058 34.3232C35.5058 33.2574 35.5947 32.5971 35.6657 32.1295C35.6723 32.0865 35.6787 32.0447 35.685 32.0042C35.722 31.7656 35.7529 31.5667 35.7549 31.3802L38.2131 33.1415L38.2479 33.1664L38.2906 33.1692L45.1378 33.6223Z" fill="#B9FF66" stroke="#191A23" stroke-width="0.3"/>
<path d="M13.3782 17.9622L13.4107 18.1087L13.398 18.1115L13.385 18.1121C11.9979 18.175 10.9172 18.8833 10.1778 19.5864C9.80873 19.9373 9.52729 20.2845 9.3383 20.5438C9.24388 20.6733 9.17273 20.7806 9.12545 20.8551C9.10182 20.8924 9.08416 20.9214 9.07255 20.9408L9.05969 20.9626L9.05669 20.9678L9.05605 20.969L9.05598 20.9691L13.3782 17.9622ZM13.3782 17.9622L13.4107 18.1087L13.4108 18.1086L13.4113 18.1085L13.4131 18.1081L13.4204 18.1065L13.4496 18.1002C13.4754 18.0947 13.5134 18.0865 13.5624 18.0764C13.6604 18.056 13.8021 18.0274 13.9762 17.9945C14.3245 17.9287 14.802 17.8456 15.3192 17.7768C15.837 17.708 16.3919 17.6537 16.8957 17.6447C17.3642 17.6363 17.7748 17.6675 18.0686 17.7545L18.9799 20.8723L18.9827 20.8817L18.9849 20.8867C18.9855 20.8888 18.9865 20.8929 18.987 20.8986C18.9883 20.9103 18.9877 20.9272 18.9786 20.9469C18.9627 20.9817 18.8936 21.0786 18.5915 21.1395L18.5907 21.1397L18.5829 21.1412C18.5765 21.1426 18.5676 21.1445 18.5567 21.1471C18.5349 21.1522 18.5046 21.16 18.4697 21.1709C18.4015 21.1923 18.3079 21.228 18.2239 21.2839C18.1415 21.3387 18.049 21.4262 18.0202 21.5567C17.9904 21.6923 18.0382 21.8311 18.1443 21.9659L13.3782 17.9622ZM13.9528 21.4821C13.986 21.3358 13.9859 21.3358 13.9858 21.3358L13.9857 21.3358L13.9852 21.3357L13.9839 21.3354L13.9798 21.3345L13.9656 21.3316C13.9535 21.3292 13.9362 21.326 13.9144 21.3224C13.8709 21.3152 13.8089 21.3065 13.7333 21.3001C13.5826 21.2871 13.3748 21.2826 13.1488 21.3175C12.6987 21.3871 12.1627 21.6169 11.8824 22.255L11.8709 22.2711C11.8573 22.2903 11.8372 22.3188 11.8115 22.3559C11.7599 22.4301 11.6855 22.539 11.5933 22.6786C11.409 22.9577 11.1538 23.3595 10.8693 23.8513C10.3008 24.8342 9.61305 26.1804 9.14179 27.628L9.14159 27.6279L9.13953 27.6356L9.28442 27.6744L9.13953 27.6356L9.13951 27.6357L9.13944 27.636L9.13911 27.6372L9.13776 27.6422L9.13236 27.662L9.11122 27.7382C9.09274 27.8042 9.06573 27.899 9.03174 28.0138C8.96371 28.2435 8.86793 28.5528 8.75674 28.8717C8.64531 29.1912 8.51954 29.5171 8.39185 29.7816C8.32796 29.9139 8.26503 30.0278 8.2048 30.1168C8.15728 30.1869 8.11591 30.2348 8.08226 30.2643C8.07168 30.2721 8.06318 30.2785 8.05682 30.2833L8.04681 30.2909L8.04407 30.293L8.04327 30.2936L8.04301 30.2938C8.04292 30.2939 8.04285 30.294 8.13528 30.4121L8.04285 30.294L8.21688 30.538C8.23438 30.5266 8.25151 30.5139 8.26826 30.4999C8.26933 30.4991 8.27041 30.4983 8.27151 30.4975C8.30158 30.4755 8.34674 30.4433 8.40592 30.4034C8.52431 30.3235 8.69863 30.2125 8.92034 30.0902C9.36419 29.8453 9.99559 29.556 10.7467 29.3766C12.2439 29.019 14.219 29.0963 16.1503 30.8491L16.2238 30.9158L16.3139 30.8743L16.3139 30.8743L16.3139 30.8743L16.3143 30.8741L16.3162 30.8732L16.3248 30.8694C16.3326 30.8659 16.3444 30.8607 16.3602 30.8539C16.3918 30.8404 16.439 30.8206 16.5005 30.7964C16.6236 30.7479 16.8037 30.6814 17.03 30.6102C17.4829 30.4679 18.1189 30.3076 18.8514 30.2355C20.3122 30.0917 22.1417 30.2996 23.6762 31.6827C23.6824 31.6921 23.6906 31.7043 23.7009 31.719C23.7247 31.7527 23.7599 31.7991 23.8075 31.8533C23.9025 31.9617 24.0474 32.1018 24.2494 32.2327C24.6183 32.4719 25.1703 32.6757 25.9407 32.6101C25.9083 35.8299 24.5392 38.2096 22.948 39.8656C21.3729 41.5049 19.5841 42.4304 18.6728 42.7513C17.8876 41.7527 16.7063 39.7616 17.0457 37.6055L17.0812 37.3801L16.8603 37.4369L16.8602 37.4369L16.8602 37.4369L16.8598 37.437L16.858 37.4375L16.8503 37.4394L16.8187 37.4471C16.7906 37.4539 16.7485 37.4638 16.6933 37.4762C16.583 37.5009 16.4203 37.5354 16.2124 37.5743C15.7963 37.652 15.1993 37.747 14.4773 37.8158C13.0332 37.9533 11.0941 37.9853 9.10436 37.5668L9.10281 37.5663L9.08511 37.5614C9.06937 37.5569 9.04584 37.5502 9.01514 37.5412C8.95373 37.5231 8.86365 37.496 8.74979 37.4597C8.52204 37.3871 8.1994 37.278 7.82101 37.1326C7.06322 36.8413 6.08639 36.4057 5.20083 35.8271L5.17738 35.8118L5.15002 35.806L5.14998 35.8059L5.14994 35.8059L5.14949 35.8058L5.14733 35.8054L5.13817 35.8034L5.10109 35.7949C5.0683 35.7872 5.01974 35.7756 4.95753 35.7596C4.83307 35.7277 4.65412 35.6788 4.43756 35.6109C4.00403 35.4751 3.42183 35.264 2.82518 34.9632C1.62241 34.3567 0.406107 33.4087 0.167351 32.0166C0.111324 31.682 0.191824 31.2577 0.396556 30.7588C0.600206 30.2624 0.920222 29.7078 1.32268 29.1198C2.12744 27.9439 3.25011 26.651 4.39264 25.4474C5.53439 24.2446 6.69229 23.1347 7.56507 22.3253C8.00136 21.9207 8.3662 21.5914 8.62187 21.3633C8.74971 21.2493 8.85023 21.1605 8.91875 21.1004L8.99691 21.0319L9.01688 21.0146L9.02188 21.0102L9.02312 21.0091L9.02342 21.0089C9.02348 21.0088 9.02351 21.0088 8.92531 20.8954L9.02351 21.0088L9.04319 20.9918L9.05594 20.9691L13.9528 21.4821Z" fill="white" stroke="#191A23" stroke-width="0.3"/>
<path fill-rule="evenodd" clip-rule="evenodd" d="M6.55614 30.6725C6.55614 30.6725 6.55614 30.5421 6.41249 30.3466C6.26886 30.0859 6.26886 29.8904 6.12521 29.4992C6.12521 29.1733 5.98157 28.6519 6.12521 28.1955C6.12521 27.7393 6.41249 27.2178 6.48432 26.7615C6.7716 26.3053 6.98706 25.7838 7.27435 25.4579C7.56163 25.132 7.92074 24.7409 8.20803 24.4801C8.85442 24.0239 9.35717 23.8936 9.35717 23.8936C9.35717 23.8936 9.21353 24.0239 9.06988 24.1543C8.92625 24.2846 8.71079 24.4801 8.4235 24.8713C7.92074 25.4579 7.34617 26.1748 6.98706 27.0223C6.84343 27.4785 6.62795 27.8697 6.48432 28.326C6.34068 28.7822 6.34068 29.1733 6.19703 29.4992C6.19703 29.8252 6.19703 30.0859 6.19703 30.3466C6.48432 30.6074 6.48432 30.6725 6.48432 30.6725H6.55614Z" fill="#F3F3F3"/>
<path fill-rule="evenodd" clip-rule="evenodd" d="M26.1621 32.4324C24.4383 32.6932 23.792 31.5851 23.792 31.5851C20.6318 28.717 16.2507 30.7377 16.2507 30.7377C12.3006 27.1527 8.13493 30.4119 8.13493 30.4119C8.63769 30.0859 9.28409 27.6742 9.28409 27.6742C10.2178 24.8061 12.0133 22.3292 12.0133 22.3292C12.0133 22.1989 12.1569 22.0684 12.3006 22.0032C11.9415 22.1337 11.6542 22.3292 11.3669 22.8507C11.3669 22.8507 9.57137 25.3276 8.63769 28.1956C8.63769 28.1956 7.9913 30.477 7.56036 30.9332C7.56036 30.9332 11.726 27.609 15.6761 31.2592C15.6761 31.2592 20.1291 29.2385 23.2175 32.1066C23.2175 32.1066 23.8639 33.1496 25.5875 32.9539C25.7312 37.7123 22.8583 40.6454 20.4882 42.3403C22.7147 40.7759 26.234 37.7123 26.0902 32.4977L26.1621 32.4324Z" fill="#232021" fill-opacity="0.101961"/>
<path d="M37.0828 32.6098C37.081 35.8301 38.4334 38.2096 40.033 39.8653C41.6212 41.5093 43.4492 42.4351 44.4236 42.7532C45.2088 41.7553 46.3919 39.763 46.0524 37.6055L46.0169 37.3801L46.2378 37.4369L46.2378 37.4369L46.2379 37.4369L46.2383 37.437L46.2401 37.4375L46.2478 37.4394L46.2794 37.4471C46.3075 37.4539 46.3496 37.4638 46.4047 37.4762C46.5151 37.5009 46.6777 37.5354 46.8857 37.5743C47.3017 37.652 47.8987 37.747 48.6208 37.8158C50.0648 37.9533 52.0038 37.9853 53.9936 37.5668L53.9952 37.5663L54.0128 37.5614C54.0286 37.5569 54.0521 37.5502 54.0828 37.5412C54.1442 37.5231 54.2343 37.496 54.3482 37.4597C54.5759 37.3871 54.8986 37.278 55.2769 37.1326C56.0347 36.8413 57.0116 36.4057 57.8972 35.8271L57.9206 35.8118L57.948 35.806L57.948 35.8059L57.9481 35.8059L57.9485 35.8058L57.9507 35.8054L57.9598 35.8034L57.9969 35.7949C58.0297 35.7872 58.0783 35.7756 58.1405 35.7596C58.2649 35.7277 58.4439 35.6788 58.6604 35.6109C59.094 35.4751 59.6762 35.264 60.2728 34.9632C61.4755 34.3568 62.6918 33.4088 62.9306 32.0168C62.9867 31.6822 62.9062 31.2578 62.7014 30.7588C62.4977 30.2624 62.1777 29.7078 61.7753 29.1198C60.9705 27.9439 59.8478 26.651 58.7053 25.4474C57.5635 24.2446 56.4056 23.1347 55.5328 22.3253C55.0965 21.9207 54.7317 21.5914 54.476 21.3633C54.3482 21.2493 54.2477 21.1605 54.1791 21.1004L54.101 21.0319L54.081 21.0146L54.076 21.0102L54.0748 21.0091L54.0745 21.0089C54.0744 21.0088 54.0744 21.0088 54.1726 20.8954L54.0744 21.0088L54.0547 20.9918L37.0828 32.6098ZM37.0828 32.6098C37.8546 32.6761 38.4074 32.4722 38.7767 32.2327C38.9787 32.1018 39.1236 31.9617 39.2186 31.8533C39.2662 31.7991 39.3014 31.7527 39.3252 31.719C39.3355 31.7044 39.3437 31.6921 39.3498 31.6827C40.8844 30.2996 42.7139 30.0917 44.1747 30.2355C44.9071 30.3076 45.5432 30.4679 45.9961 30.6102C46.2224 30.6814 46.4025 30.7479 46.5256 30.7964C46.5871 30.8206 46.6343 30.8404 46.6659 30.8539C46.6816 30.8607 46.6935 30.8659 46.7013 30.8694L46.7098 30.8732L46.7118 30.8741L46.7122 30.8743L46.7122 30.8743L46.7122 30.8743L46.8023 30.9158L46.8758 30.8491C48.8071 29.0963 50.7823 29.019 52.2794 29.3766C53.0306 29.556 53.662 29.8453 54.1058 30.0902C54.3275 30.2125 54.5018 30.3235 54.6202 30.4034C54.6794 30.4433 54.7246 30.4755 54.7546 30.4975C54.7697 30.5085 54.7809 30.5169 54.7883 30.5225L54.7963 30.5286L54.7982 30.53L54.7984 30.5302L54.7985 30.5303L54.7985 30.5303L54.8 30.5285L54.9917 30.301C54.8916 30.2102 54.7721 30.0089 54.6474 29.7305C54.5258 29.4592 54.4087 29.1367 54.3062 28.8253C54.2039 28.5144 54.117 28.2173 54.0557 27.9977C54.025 27.888 54.0008 27.7978 53.9843 27.7351L53.9654 27.6628L53.9606 27.644L53.9594 27.6393L53.9591 27.6381L53.959 27.6379L53.959 27.6378L53.9594 27.6377L53.9562 27.628C53.4849 26.1804 52.7972 24.8342 52.2287 23.8513C51.9442 23.3595 51.6889 22.9577 51.5047 22.6786C51.4125 22.539 51.3381 22.4301 51.2865 22.3559C51.2608 22.3188 51.2407 22.2903 51.2271 22.2711L51.2156 22.255C50.9353 21.6169 50.3993 21.3871 49.9491 21.3175C49.7231 21.2826 49.5153 21.2871 49.3647 21.3001C49.289 21.3065 49.2271 21.3152 49.1835 21.3224C49.1617 21.326 49.1445 21.3292 49.1324 21.3316L49.1181 21.3345L49.114 21.3354L49.1127 21.3357L49.1123 21.3358L49.1121 21.3358C49.112 21.3358 49.112 21.3358 49.1452 21.4821L49.112 21.3358L49.0735 21.3445L49.0444 21.371C48.7391 21.6481 48.398 21.8189 48.1312 21.9204C47.9982 21.971 47.8848 22.004 47.8053 22.0242C47.7656 22.0343 47.7345 22.0412 47.7137 22.0454L47.6905 22.05L47.6852 22.0509L47.6843 22.0511L47.6842 22.0511L47.6842 22.0511L47.6842 22.0511L47.6841 22.0511L47.6676 22.0538L47.652 22.0602C46.9438 22.3495 46.535 22.4068 46.313 22.3996C46.2031 22.396 46.1413 22.3767 46.1119 22.364C46.101 22.3592 46.0942 22.3553 46.0908 22.3531L45.8896 22.1248L45.8371 22.4348C45.7701 22.8302 45.6316 22.9083 45.567 22.9267C45.5264 22.9382 45.4859 22.9353 45.4526 22.9277C45.4364 22.9241 45.4234 22.9196 45.4151 22.9163C45.4139 22.9159 45.4128 22.9155 45.4119 22.9151C45.4095 22.9141 45.4078 22.9133 45.4068 22.9129C45.4066 22.9128 45.4065 22.9127 45.4064 22.9127L45.3942 22.9064L45.3796 22.9022C45.1108 22.826 44.9673 22.7248 44.892 22.6315C44.819 22.541 44.7991 22.444 44.8059 22.3482C44.8129 22.2491 44.849 22.153 44.8867 22.0782C44.9052 22.0416 44.9231 22.0119 44.9361 21.9918C44.9426 21.9817 44.9479 21.9742 44.9512 21.9695L44.9548 21.9645L44.9549 21.9644C45.0601 21.8301 45.1074 21.6918 45.0777 21.5567C45.0489 21.4262 44.9564 21.3387 44.8741 21.2839C44.79 21.228 44.6964 21.1923 44.6282 21.1709C44.5933 21.16 44.5631 21.1522 44.5413 21.1471C44.5304 21.1445 44.5214 21.1426 44.515 21.1412L44.5073 21.1397L44.5055 21.1394C44.2042 21.0784 44.1353 20.9817 44.1193 20.9469C44.1103 20.9272 44.1097 20.9103 44.1109 20.8986C44.1115 20.8929 44.1125 20.8888 44.1131 20.8867L44.1153 20.8817L44.118 20.8723L45.0294 17.7545C45.3232 17.6675 45.7338 17.6363 46.2023 17.6447C46.7061 17.6537 47.261 17.708 47.7788 17.7768C48.296 17.8456 48.7735 17.9287 49.1218 17.9945C49.2959 18.0274 49.4375 18.056 49.5355 18.0764C49.5845 18.0865 49.6226 18.0947 49.6483 18.1002L49.6775 18.1065L49.6849 18.1081L49.6867 18.1085L49.6871 18.1086L49.6872 18.1087L49.7198 17.9622L49.6872 18.1087L49.6999 18.1115L49.713 18.1121C51.1001 18.175 52.1807 18.8833 52.9201 19.5864C53.2892 19.9373 53.5706 20.2845 53.7596 20.5438C53.854 20.6733 53.9252 20.7806 53.9724 20.8551C53.9961 20.8924 54.0137 20.9214 54.0253 20.9408L54.0382 20.9626L54.0412 20.9678L54.0418 20.969L54.0419 20.9691L54.042 20.9691L37.0828 32.6098Z" fill="white" stroke="#191A23" stroke-width="0.3"/>
<path fill-rule="evenodd" clip-rule="evenodd" d="M56.4705 30.6725C56.4705 30.6725 56.4705 30.5421 56.6142 30.3466C56.7578 30.0859 56.7578 29.8904 56.9015 29.4992C56.9015 29.1733 57.0451 28.6519 56.9015 28.1955C56.9015 27.7393 56.6142 27.2178 56.5424 26.7615C56.2551 26.3053 56.0397 25.7838 55.7524 25.4579C55.4651 25.132 55.1059 24.7409 54.8186 24.4801C54.1723 24.0239 53.6695 23.8936 53.6695 23.8936C53.6695 23.8936 53.8132 24.0239 53.9568 24.1543C54.1005 24.2846 54.3159 24.4801 54.6032 24.8713C55.1059 25.4579 55.6805 26.1748 56.0397 27.0223C56.1832 27.4785 56.3987 27.8697 56.5424 28.326C56.686 28.7822 56.686 29.1733 56.8297 29.4992C56.8297 29.8252 56.8297 30.0859 56.8297 30.3466C56.5424 30.6074 56.5424 30.6725 56.5424 30.6725H56.4705Z" fill="#F3F3F3"/>
<path fill-rule="evenodd" clip-rule="evenodd" d="M36.863 32.4324C38.5866 32.6932 39.233 31.5851 39.233 31.5851C42.3931 28.717 46.7742 30.7377 46.7742 30.7377C50.7244 27.1527 54.8901 30.4119 54.8901 30.4119C54.3874 29.9555 53.8128 27.6742 53.8128 27.6742C52.8791 24.8061 51.0836 22.3292 51.0836 22.3292C51.0836 22.1989 50.9399 22.0684 50.7963 22.0032C51.1553 22.1337 51.4426 22.3292 51.7299 22.8507C51.7299 22.8507 53.5255 25.3276 54.4591 28.1956C54.4591 28.1956 55.1055 30.477 55.5365 30.9332C55.5365 30.9332 51.3709 27.609 47.4207 31.2592C47.4207 31.2592 42.9677 29.2385 39.8795 32.1066C39.8795 32.1066 39.233 33.1496 37.5093 32.9539C37.3657 37.7123 40.2385 40.6454 42.6087 42.3403C40.2385 40.7759 36.7193 37.7123 36.863 32.4977V32.4324Z" fill="#232021" fill-opacity="0.101961"/>
<path fill-rule="evenodd" clip-rule="evenodd" d="M33.2012 17.6362C27.7428 16.4629 27.4555 19.2006 27.4555 19.2006C27.4555 19.2006 22.8589 20.3087 25.4444 27.0876C25.4444 27.2833 25.4444 27.4136 25.5163 27.4788C25.8036 28.1958 27.0246 29.9557 27.4555 30.7379C27.8864 31.5852 32.7703 31.6505 34.4222 31.1942C35.7868 30.803 37.0796 28.5217 37.5823 27.4136C38.3723 26.8921 39.2342 23.7634 38.516 22.0686C37.5823 19.7873 35.7868 18.0273 33.273 17.5711L33.2012 17.6362Z" fill="#191A23"/>
<path fill-rule="evenodd" clip-rule="evenodd" d="M18.7646 15.0286C18.8365 14.3116 19.4829 13.7901 20.2729 13.7901C21.0629 13.8553 21.6375 14.442 21.6375 15.159L21.2067 22.4595C21.1348 23.1765 20.4884 23.698 19.6983 23.698C18.9083 23.6327 18.3337 23.0461 18.3337 22.3291L18.7646 15.0286Z" fill="#B9FF66"/>
<path fill-rule="evenodd" clip-rule="evenodd" d="M31.9073 6.03375C33.2002 6.03375 34.2775 5.056 34.2775 3.88272C34.2775 2.70943 33.2002 1.73169 31.9073 1.73169C30.6145 1.73169 29.5372 2.70943 29.5372 3.88272C29.5372 5.056 30.6145 6.03375 31.9073 6.03375Z" fill="#B9FF66"/>
</g>
<defs>
<clipPath id="clip0_119_455">
<rect y="0.664001" width="63.0986" height="53.76" rx="15" fill="white"/>
</clipPath>
</defs>
</svg>
