<svg width="52" height="52" viewBox="0 0 52 52" fill="none" xmlns="http://www.w3.org/2000/svg">
<path d="M46.3125 13.8125V9.75H42.25V5.6875H30.0625V9.75H26H21.9375V5.6875H9.75V9.75H5.6875V13.8125H1.625V26H5.6875V30.0625H9.75V34.125H13.8125V38.1875H17.875V42.25H21.9375V46.3125H26L50.375 21.9375V13.8125H46.3125Z" fill="#B9FF66"/>
<path d="M13.8125 13.8125H9.75V17.875H13.8125V13.8125Z" fill="white"/>
<path d="M30.0625 42.25H26V46.3125H30.0625V42.25Z" fill="white"/>
<path d="M34.125 38.1875H30.0625V42.25H34.125V38.1875Z" fill="white"/>
<path d="M38.1875 34.125H34.125V38.1875H38.1875V34.125Z" fill="white"/>
<path d="M42.25 30.0625H38.1875V34.125H42.25V30.0625Z" fill="white"/>
<path d="M46.3125 26H42.25V30.0625H46.3125V26Z" fill="white"/>
<path d="M50.375 21.9375H46.3125V26H50.375V21.9375Z" fill="white"/>
</svg>
