<svg width="52" height="52" viewBox="0 0 52 52" fill="none" xmlns="http://www.w3.org/2000/svg">
<g clip-path="url(#clip0_119_498)">
<path d="M11.1064 48.7198C11.1064 49.8297 10.2068 50.7293 9.09697 50.7293C7.98714 50.7293 7.08754 49.8297 7.08754 48.7198V30.6476C7.08754 29.5378 7.98714 28.6378 9.09697 28.6378C10.2068 28.6378 11.1064 29.5378 11.1064 30.6476V48.7198Z" fill="#80C3FF"/>
<path d="M9.09697 28.6378C10.2068 28.6378 11.1064 29.5378 11.1064 30.6476V48.7198C11.1064 49.8297 10.2068 50.7293 9.09697 50.7293" fill="#2A8BF4"/>
<path d="M11.1064 48.7198C11.1064 49.8297 10.2068 50.7293 9.09697 50.7293C7.98714 50.7293 7.08754 49.8297 7.08754 48.7198V30.6476C7.08754 29.5378 7.98714 28.6378 9.09697 28.6378C10.2068 28.6378 11.1064 29.5378 11.1064 30.6476V48.7198Z" stroke="#33363A" stroke-width="3" stroke-miterlimit="10" stroke-linecap="round" stroke-linejoin="round"/>
<path d="M9.09697 47.1907V47.6862" stroke="#33363A" stroke-width="3" stroke-miterlimit="10" stroke-linecap="round" stroke-linejoin="round"/>
<path d="M9.09697 12.7686V20.6306" stroke="#33363A" stroke-width="3" stroke-miterlimit="10" stroke-linecap="round" stroke-linejoin="round"/>
<path d="M9.09697 22.1739V28.1788" stroke="#33363A" stroke-width="5" stroke-miterlimit="10" stroke-linecap="round" stroke-linejoin="round"/>
<path d="M11.6635 12.9543V17.9113C11.6635 19.3287 10.5143 20.4779 9.09697 20.4779C7.6796 20.4779 6.5304 19.3287 6.5304 17.9113V12.9543" stroke="#33363A" stroke-width="3" stroke-miterlimit="10" stroke-linecap="round" stroke-linejoin="round"/>
<path d="M11.8277 21.8325C11.8277 22.6864 11.135 23.3788 10.2811 23.3788H7.91323C7.05931 23.3788 6.36734 22.6864 6.36734 21.8325V18.9703C6.36734 18.116 7.05931 17.4237 7.91323 17.4237H10.2811C11.135 17.4237 11.8277 18.116 11.8277 18.9703V21.8325Z" fill="#33363A"/>
<path d="M11.8277 21.8325C11.8277 22.6864 11.135 23.3788 10.2811 23.3788H7.91323C7.05931 23.3788 6.36734 22.6864 6.36734 21.8325V18.9703C6.36734 18.116 7.05931 17.4237 7.91323 17.4237H10.2811C11.135 17.4237 11.8277 18.116 11.8277 18.9703V21.8325Z" stroke="#33363A" stroke-width="3" stroke-miterlimit="10" stroke-linecap="round" stroke-linejoin="round"/>
<path d="M51.6634 32.4531C51.6634 42.9865 43.125 51.526 32.5898 51.526C22.0572 51.526 13.5177 42.9869 13.5177 32.4531C13.5177 21.9194 22.0569 13.3799 32.5898 13.3799C43.1247 13.3803 51.6634 21.9194 51.6634 32.4531Z" fill="white"/>
<path d="M32.5898 13.3803C43.1247 13.3803 51.6634 21.9194 51.6634 32.4535C51.6634 42.9869 43.125 51.5264 32.5898 51.5264" fill="#C8DBDB"/>
<path d="M51.6634 32.4531C51.6634 42.9865 43.125 51.526 32.5898 51.526C22.0572 51.526 13.5177 42.9869 13.5177 32.4531C13.5177 21.9194 22.0569 13.3799 32.5898 13.3799C43.1247 13.3803 51.6634 21.9194 51.6634 32.4531Z" stroke="#33363A" stroke-width="3" stroke-miterlimit="10" stroke-linecap="round" stroke-linejoin="round"/>
<path d="M32.5898 45.1256C39.5886 45.1256 45.2622 39.4519 45.2622 32.4532C45.2622 25.4544 39.5886 19.7808 32.5898 19.7808C25.5911 19.7808 19.9174 25.4544 19.9174 32.4532C19.9174 39.4519 25.5911 45.1256 32.5898 45.1256Z" fill="white"/>
<path d="M19.9179 32.4532C19.9179 25.4543 25.5915 19.7808 32.59 19.7808C39.5899 19.7808 45.2627 25.4543 45.2627 32.4532" fill="#C8DBDB"/>
<path d="M32.5898 45.1256C39.5886 45.1256 45.2622 39.4519 45.2622 32.4532C45.2622 25.4544 39.5886 19.7808 32.5898 19.7808C25.5911 19.7808 19.9174 25.4544 19.9174 32.4532C19.9174 39.4519 25.5911 45.1256 32.5898 45.1256Z" stroke="#33363A" stroke-width="3" stroke-miterlimit="10" stroke-linecap="round" stroke-linejoin="round"/>
<path d="M32.5902 40.109C36.8188 40.109 40.2468 36.681 40.2468 32.4524C40.2468 28.2238 36.8188 24.7958 32.5902 24.7958C28.3616 24.7958 24.9336 28.2238 24.9336 32.4524C24.9336 36.681 28.3616 40.109 32.5902 40.109Z" fill="#C8DBDB"/>
<path d="M32.5898 40.1094C28.3611 40.1094 24.9336 36.6811 24.9336 32.4524C24.9336 28.2237 28.3615 24.7958 32.5898 24.7958" fill="white"/>
<path d="M50.7991 25.259C48.1642 13.3502 36.3751 5.83288 24.4663 8.4678L29.2384 30.0296L50.7991 25.259Z" fill="#83ED88"/>
<path d="M48.4127 25.7875C46.0701 15.1966 35.5854 8.51088 24.9945 10.8542L29.2384 30.0292L48.4127 25.7875Z" fill="#5FCE96"/>
<path d="M46.9151 26.1185C44.7549 16.3551 35.0895 10.1916 25.3258 12.3518L29.2381 30.0296L46.9151 26.1185Z" fill="#F42535"/>
<path d="M29.2384 30.0292L46.9155 26.1188C45.8353 21.2368 42.8791 17.2554 38.9717 14.7639L29.2384 30.0292Z" fill="#FC4259"/>
<path d="M45.6987 26.3874L46.9151 26.1185C44.7549 16.3551 35.0895 10.1916 25.3258 12.3518L25.5966 13.5686C34.5506 12.1955 43.1663 17.6889 45.6987 26.3874Z" fill="#D60024"/>
<path d="M45.9787 23.1418C44.5335 19.6177 42.0497 16.7269 38.9717 14.7635L38.0554 16.2005C41.6449 18.49 44.4321 22.0379 45.6987 26.3873L46.9151 26.1184C46.7498 25.37 46.5359 24.6465 46.2855 23.9433C46.1882 23.6726 46.0868 23.4051 45.9787 23.1418Z" fill="#F42535"/>
<path d="M25.3258 12.3518L29.2384 30.0296L46.9151 26.1184L30.6116 27.8753L25.3258 12.3518Z" fill="#FC4259"/>
<path d="M30.6116 27.8742L29.2384 30.0292V30.0296L46.9151 26.1185L30.6116 27.8753V27.8742Z" fill="#FF647E"/>
<path d="M50.7991 25.259C48.1642 13.3502 36.3751 5.83288 24.4663 8.4678L29.2384 30.0296L50.7991 25.259Z" stroke="#33363A" stroke-width="3" stroke-miterlimit="10" stroke-linecap="round" stroke-linejoin="round"/>
<path d="M46.9151 26.1185C44.7549 16.3551 35.0895 10.1916 25.3258 12.3518" stroke="#33363A" stroke-width="3" stroke-miterlimit="10" stroke-linecap="round" stroke-linejoin="round"/>
<path d="M35.6367 25.5015C35.6367 31.4128 30.8437 36.2042 24.9336 36.2042C19.0219 36.2042 14.2297 31.4128 14.2297 25.5015C14.2297 19.5902 19.0219 14.798 24.9336 14.798C30.8437 14.798 35.6367 19.5902 35.6367 25.5015Z" fill="#A07F3C"/>
<path d="M35.6367 25.5015C35.6367 31.4128 30.8437 36.2042 24.9336 36.2042C19.0219 36.2042 14.2297 31.4128 14.2297 25.5015" fill="#84692C"/>
<path d="M24.9336 14.798V36.2046C30.8437 36.2046 35.6367 31.4131 35.6367 25.5019C35.6367 19.5906 30.8437 14.798 24.9336 14.798Z" fill="#84692C"/>
<path d="M24.9336 25.5015V36.2042C30.8437 36.2042 35.6367 31.4128 35.6367 25.5015H24.9336Z" fill="#705622"/>
<path d="M35.6367 25.5015C35.6367 31.4128 30.8437 36.2042 24.9336 36.2042C19.0219 36.2042 14.2297 31.4128 14.2297 25.5015C14.2297 19.5902 19.0219 14.798 24.9336 14.798C30.8437 14.798 35.6367 19.5902 35.6367 25.5015Z" stroke="#33363A" stroke-width="3" stroke-miterlimit="10" stroke-linecap="round" stroke-linejoin="round"/>
<path d="M24.9332 32.699C28.9083 32.699 32.1307 29.4766 32.1307 25.5015C32.1307 21.5264 28.9083 18.304 24.9332 18.304C20.9581 18.304 17.7357 21.5264 17.7357 25.5015C17.7357 29.4766 20.9581 32.699 24.9332 32.699Z" fill="#BEDD05"/>
<path d="M17.7357 25.5015C17.7357 21.5265 20.9582 18.304 24.9336 18.304L17.7357 25.5015Z" fill="#DEF21D"/>
<path d="M17.7357 25.5015C17.7357 29.4769 20.9582 32.6987 24.9336 32.6987C28.9082 32.6987 32.1307 29.4769 32.1307 25.5015H17.7357Z" fill="#85C606"/>
<path d="M17.7357 25.5015C17.7357 29.4769 20.9582 32.6987 24.9336 32.6987L17.7357 25.5015Z" fill="#BEDD05"/>
<path d="M24.9336 18.304V32.6987C28.9082 32.6987 32.1307 29.4769 32.1307 25.5015C32.1307 21.5265 28.9082 18.304 24.9336 18.304Z" fill="#85C606"/>
<path d="M32.1307 25.5015C32.1307 21.5265 28.9082 18.304 24.9336 18.304L32.1307 25.5015Z" fill="#52C408"/>
<path d="M24.9336 25.5015V32.6987C28.9082 32.6987 32.1307 29.4769 32.1307 25.5015H24.9336Z" fill="#52C408"/>
<path d="M24.9336 32.6987C28.9082 32.6987 32.1307 29.4769 32.1307 25.5015L24.9336 32.6987Z" fill="#25C10A"/>
<path d="M24.9338 28.0573C26.3455 28.0573 27.4899 26.9129 27.4899 25.5011C27.4899 24.0894 26.3455 22.9449 24.9338 22.9449C23.522 22.9449 22.3776 24.0894 22.3776 25.5011C22.3776 26.9129 23.522 28.0573 24.9338 28.0573Z" fill="#BEDD05"/>
<path d="M24.9336 28.0573C26.3454 28.0573 27.4894 26.9133 27.4894 25.5015C27.4894 24.0897 26.3454 22.9449 24.9336 22.9449V28.0573Z" fill="#85C606"/>
<path d="M22.3763 25.5015H27.4894C27.4894 24.0897 26.3454 22.9449 24.9336 22.9449C23.521 22.9453 22.3763 24.0901 22.3763 25.5015Z" fill="#85C606"/>
<path d="M24.9336 25.5015H27.4894C27.4894 24.0897 26.3454 22.9449 24.9336 22.9449V25.5015Z" fill="#52C408"/>
<path d="M24.9332 27.0343C25.7796 27.0343 26.4657 26.3481 26.4657 25.5018C26.4657 24.6554 25.7796 23.9692 24.9332 23.9692C24.0868 23.9692 23.4007 24.6554 23.4007 25.5018C23.4007 26.3481 24.0868 27.0343 24.9332 27.0343Z" fill="#BEDD05"/>
<path d="M26.4657 25.5015C26.4657 24.655 25.7801 23.969 24.9336 23.9683C24.0863 23.969 23.4007 24.655 23.4007 25.5015H26.4657Z" fill="#85C606"/>
<path d="M24.9336 27.0344V23.9683C24.0863 23.969 23.4007 24.655 23.4007 25.5015C23.4007 26.348 24.086 27.0344 24.9336 27.0344Z" fill="#85C606"/>
<path d="M24.9336 25.5015V23.9683C24.0863 23.969 23.4007 24.655 23.4007 25.5015H24.9336Z" fill="#52C408"/>
<path d="M24.9336 32.6987C28.9085 32.6987 32.1307 29.4764 32.1307 25.5015C32.1307 21.5266 28.9085 18.3043 24.9336 18.3043C20.9587 18.3043 17.7364 21.5266 17.7364 25.5015C17.7364 29.4764 20.9587 32.6987 24.9336 32.6987Z" stroke="#33363A" stroke-width="3" stroke-miterlimit="10" stroke-linecap="round" stroke-linejoin="round"/>
<path d="M38.4384 17.3186C37.4946 20.1039 32.1453 43.3115 34.9303 44.2553C37.716 45.1991 47.58 23.5218 48.5246 20.7368C49.4691 17.9519 47.7063 15.727 44.9206 14.7821C42.136 13.8387 39.383 14.5336 38.4384 17.3186Z" fill="#FFE108"/>
<path d="M38.4383 17.3186C37.4945 20.1039 32.1452 43.3115 34.9302 44.2553C37.7159 45.1991 47.5799 23.5218 48.5245 20.7368C49.469 17.9518 47.1665 17.3197 44.3808 16.3755C41.5962 15.4313 39.3829 14.5336 38.4383 17.3186Z" fill="#FFB206"/>
<path d="M38.4383 17.3186C37.4945 20.1039 32.1452 43.3115 34.9302 44.2553C37.7159 45.1991 47.5799 23.5218 48.5245 20.7368" fill="#FF8103"/>
<path d="M34.9302 44.2557C32.822 43.5411 35.3748 30.0701 37.1502 22.3559L46.4853 25.5205C43.2038 32.7228 37.0388 44.97 34.9302 44.2557Z" fill="#FF6B06"/>
<path d="M34.9301 44.2557C33.3601 43.7231 34.3767 36.1073 35.7309 29.0695L43.5287 31.7125C40.3244 38.1241 36.5013 44.7879 34.9301 44.2557Z" fill="#ED4706"/>
<path d="M34.9301 44.2557C33.8333 43.8835 33.9993 40.0541 34.6608 35.38L40.542 37.3731C38.2243 41.4859 36.0277 44.6275 34.9301 44.2557Z" fill="#D83705"/>
<path d="M38.4384 17.3186C37.4946 20.1039 32.1453 43.3115 34.9303 44.2553C37.716 45.1991 47.58 23.5218 48.5246 20.7368C49.4691 17.9519 47.7063 15.727 44.9206 14.7821C42.136 13.8387 39.383 14.5336 38.4384 17.3186Z" stroke="#33363A" stroke-width="3" stroke-miterlimit="10" stroke-linecap="round" stroke-linejoin="round"/>
<path d="M45.0639 15.0205C45.5731 14.9195 45.9041 14.4233 45.8023 13.9141C45.4034 11.9091 46.7082 9.95203 48.7135 9.55237C49.2235 9.4506 49.5552 8.95511 49.4534 8.44551C49.3517 7.93591 48.8558 7.60497 48.3466 7.70674C45.3228 8.30957 43.3549 11.2591 43.957 14.2814C44.0584 14.7914 44.5554 15.1223 45.0639 15.0205Z" fill="#92FC6B"/>
<path d="M48.5902 8.93766C48.8636 8.88306 49.1292 8.95511 49.3368 9.10888C49.2049 9.33026 48.9865 9.49814 48.7135 9.55237C46.7086 9.95203 45.4034 11.9091 45.8023 13.9141C45.9037 14.4229 45.5731 14.9191 45.0639 15.0205C44.6839 15.0967 44.3117 14.9314 44.1049 14.6309C44.002 11.9366 45.8639 9.48106 48.5902 8.93766Z" fill="#70D63A"/>
<path d="M45.0639 15.0205C45.5731 14.9195 45.9041 14.4233 45.8023 13.9141C45.4034 11.9091 46.7082 9.95203 48.7135 9.55237C49.2235 9.4506 49.5552 8.95511 49.4534 8.44551C49.3517 7.93591 48.8558 7.60497 48.3466 7.70674C45.3228 8.30957 43.3549 11.2591 43.957 14.2814C44.0584 14.7914 44.5554 15.1223 45.0639 15.0205Z" stroke="#33363A" stroke-width="3" stroke-miterlimit="10" stroke-linecap="round" stroke-linejoin="round"/>
<path d="M45.5282 14.814C45.9185 14.4712 45.9575 13.8765 45.6143 13.4862C44.2657 11.9496 44.418 9.60213 45.9553 8.25348C46.3449 7.91028 46.3847 7.31636 46.0415 6.92562C45.6983 6.53488 45.1044 6.49662 44.7132 6.83908C42.3963 8.87265 42.1664 12.412 44.2003 14.7275C44.5431 15.1182 45.137 15.1572 45.5282 14.814Z" fill="#92FC6B"/>
<path d="M45.5412 7.78177C45.7495 7.59866 46.0162 7.52771 46.2718 7.5578C46.2681 7.81446 46.1637 8.07 45.9553 8.25311C44.418 9.60177 44.2657 11.9492 45.6143 13.4858C45.9575 13.8762 45.9182 14.4708 45.5282 14.8137C45.2373 15.0696 44.8325 15.1123 44.5023 14.9555C43.066 12.6739 43.4511 9.61663 45.5412 7.78177Z" fill="#70D63A"/>
<path d="M45.5282 14.814C45.9185 14.4712 45.9575 13.8765 45.6143 13.4862C44.2657 11.9496 44.418 9.60213 45.9553 8.25348C46.3449 7.91028 46.3847 7.31636 46.0415 6.92562C45.6983 6.53488 45.1044 6.49662 44.7132 6.83908C42.3963 8.87265 42.1664 12.412 44.2003 14.7275C44.5431 15.1182 45.137 15.1572 45.5282 14.814Z" stroke="#33363A" stroke-width="3" stroke-miterlimit="10" stroke-linecap="round" stroke-linejoin="round"/>
<path d="M45.156 13.4286C44.8128 13.0382 44.8522 12.4436 45.2422 12.1004C46.778 10.7521 46.9318 8.40464 45.5824 6.86767C45.2399 6.4773 45.2786 5.88264 45.6686 5.53981C46.0582 5.19698 46.6536 5.23598 46.9968 5.62636C49.0304 7.94258 48.7997 11.4816 46.4831 13.5144C46.0931 13.8576 45.4992 13.819 45.156 13.4286Z" fill="#92FC6B"/>
<path d="M46.0541 6.45428C45.8713 6.24554 45.6158 6.14117 45.3584 6.13708C45.3287 6.39263 45.3996 6.65931 45.5827 6.86768C46.9321 8.40466 46.7784 10.7521 45.2425 12.1004C44.8521 12.4436 44.8131 13.0382 45.1563 13.4286C45.4119 13.7198 45.8078 13.8149 46.1547 13.7023C47.8741 11.6261 47.8886 8.54431 46.0541 6.45428Z" fill="#70D63A"/>
<path d="M45.156 13.4286C44.8128 13.0382 44.8522 12.4436 45.2422 12.1004C46.778 10.7521 46.9318 8.40464 45.5824 6.86767C45.2399 6.4773 45.2786 5.88264 45.6686 5.53981C46.0582 5.19698 46.6536 5.23598 46.9968 5.62636C49.0304 7.94258 48.7997 11.4816 46.4831 13.5144C46.0931 13.8576 45.4992 13.819 45.156 13.4286Z" stroke="#33363A" stroke-width="3" stroke-miterlimit="10" stroke-linecap="round" stroke-linejoin="round"/>
<path d="M44.9125 12.9821C44.8119 12.4729 45.1417 11.977 45.6517 11.8756C47.6559 11.476 48.9618 9.51929 48.5637 7.51432C48.4623 7.00472 48.7928 6.50961 49.3021 6.40784C49.8113 6.30569 50.3068 6.63626 50.4089 7.14624C51.0117 10.1693 49.0421 13.1184 46.0194 13.7213C45.5101 13.8227 45.0139 13.4917 44.9125 12.9821Z" fill="#92FC6B"/>
<path d="M49.1778 7.39176C49.1236 7.11987 48.9565 6.90222 48.7347 6.76999C48.5809 6.97613 48.5085 7.24207 48.5635 7.51433C48.9617 9.5193 47.6561 11.476 45.6515 11.8756C45.1415 11.977 44.8113 12.4729 44.9123 12.9821C44.9885 13.3625 45.2845 13.6425 45.64 13.7183C48.1687 12.7801 49.722 10.1188 49.1778 7.39176Z" fill="#70D63A"/>
<path d="M44.9125 12.9821C44.8119 12.4729 45.1417 11.977 45.6517 11.8756C47.6559 11.476 48.9618 9.51929 48.5637 7.51432C48.4623 7.00472 48.7928 6.50961 49.3021 6.40784C49.8113 6.30569 50.3068 6.63626 50.4089 7.14624C51.0117 10.1693 49.0421 13.1184 46.0194 13.7213C45.5101 13.8227 45.0139 13.4917 44.9125 12.9821Z" stroke="#33363A" stroke-width="3" stroke-miterlimit="10" stroke-linecap="round" stroke-linejoin="round"/>
<path d="M44.5279 15.8982C44.0354 15.7314 43.7713 15.197 43.9381 14.7052C44.5955 12.7686 43.5536 10.6592 41.6174 10.0029C41.1256 9.83613 40.8608 9.30201 41.0276 8.80987C41.1951 8.31773 41.7292 8.05401 42.2217 8.22041C45.14 9.21027 46.7108 12.3901 45.7206 15.3091C45.5542 15.8013 45.0204 16.065 44.5279 15.8982Z" fill="#92FC6B"/>
<path d="M41.8183 9.40899C41.5557 9.31985 41.2824 9.35625 41.058 9.48217C41.1594 9.71802 41.3548 9.91377 41.6174 10.0025C43.5537 10.6592 44.5955 12.7682 43.9381 14.7048C43.7713 15.1966 44.0354 15.7311 44.5279 15.8979C44.8941 16.0219 45.2853 15.906 45.5289 15.636C45.9802 12.9777 44.4518 10.3015 41.8183 9.40899Z" fill="#70D63A"/>
<path d="M44.5279 15.8982C44.0354 15.7314 43.7713 15.197 43.9381 14.7052C44.5955 12.7686 43.5536 10.6592 41.6174 10.0029C41.1256 9.83613 40.8608 9.30201 41.0276 8.80987C41.1951 8.31773 41.7292 8.05401 42.2217 8.22041C45.14 9.21027 46.7108 12.3901 45.7206 15.3091C45.5542 15.8013 45.0204 16.065 44.5279 15.8982Z" stroke="#33363A" stroke-width="3" stroke-miterlimit="10" stroke-linecap="round" stroke-linejoin="round"/>
<path d="M44.5554 15.9075C45.0464 16.0739 45.5813 15.8102 45.7481 15.3184C46.404 13.3821 48.5133 12.3403 50.4503 12.9966C50.9414 13.163 51.4755 12.9004 51.643 12.4079C51.8098 11.9157 51.5457 11.3813 51.0532 11.2141C48.1349 10.225 44.9551 11.7947 43.9656 14.7141C43.7988 15.2066 44.0629 15.7407 44.5554 15.9075Z" fill="#92FC6B"/>
<path d="M50.6512 12.4031C50.9138 12.4918 51.1081 12.6872 51.2106 12.9238C50.9859 13.0493 50.7129 13.0857 50.4503 12.9966C48.5133 12.3403 46.4036 13.3821 45.748 15.3184C45.5812 15.8102 45.0464 16.0739 44.5553 15.9075C44.1869 15.7827 43.948 15.4532 43.9183 15.0903C45.1764 12.705 48.017 11.5098 50.6512 12.4031Z" fill="#70D63A"/>
<path d="M44.5554 15.9075C45.0464 16.0739 45.5813 15.8102 45.7481 15.3184C46.404 13.3821 48.5133 12.3403 50.4503 12.9966C50.9414 13.163 51.4755 12.9004 51.643 12.4079C51.8098 11.9157 51.5457 11.3813 51.0532 11.2141C48.1349 10.225 44.9551 11.7947 43.9656 14.7141C43.7988 15.2066 44.0629 15.7407 44.5554 15.9075Z" stroke="#33363A" stroke-width="3" stroke-miterlimit="10" stroke-linecap="round" stroke-linejoin="round"/>
<path d="M45.6972 19.7786L48.1493 20.6098" stroke="#33363A" stroke-width="3" stroke-miterlimit="10" stroke-linecap="round" stroke-linejoin="round"/>
<path d="M43.9132 19.1486L43.4868 19.013" stroke="#33363A" stroke-width="3" stroke-miterlimit="10" stroke-linecap="round" stroke-linejoin="round"/>
<path d="M41.6768 18.4054L41.8451 18.4589" stroke="#33363A" stroke-width="3" stroke-miterlimit="10" stroke-linecap="round" stroke-linejoin="round"/>
<path d="M40.0931 17.8687L40.2606 17.9221" stroke="#33363A" stroke-width="3" stroke-miterlimit="10" stroke-linecap="round" stroke-linejoin="round"/>
<path d="M44.6962 22.7314L47.148 23.5626" stroke="#33363A" stroke-width="3" stroke-miterlimit="10" stroke-linecap="round" stroke-linejoin="round"/>
<path d="M42.9122 22.101L42.4858 21.9658" stroke="#33363A" stroke-width="3" stroke-miterlimit="10" stroke-linecap="round" stroke-linejoin="round"/>
<path d="M40.6751 21.3586L40.8441 21.4121" stroke="#33363A" stroke-width="3" stroke-miterlimit="10" stroke-linecap="round" stroke-linejoin="round"/>
<path d="M39.0913 20.8215L39.2603 20.8746" stroke="#33363A" stroke-width="3" stroke-miterlimit="10" stroke-linecap="round" stroke-linejoin="round"/>
<path d="M43.5418 25.633L45.9947 26.4643" stroke="#33363A" stroke-width="3" stroke-miterlimit="10" stroke-linecap="round" stroke-linejoin="round"/>
<path d="M41.7593 25.003L41.3329 24.8674" stroke="#33363A" stroke-width="3" stroke-miterlimit="10" stroke-linecap="round" stroke-linejoin="round"/>
<path d="M39.5214 24.2598L39.6904 24.3133" stroke="#33363A" stroke-width="3" stroke-miterlimit="10" stroke-linecap="round" stroke-linejoin="round"/>
<path d="M37.9377 23.7227L38.1063 23.7762" stroke="#33363A" stroke-width="3" stroke-miterlimit="10" stroke-linecap="round" stroke-linejoin="round"/>
<path d="M42.1615 28.4566L44.6126 29.2882" stroke="#33363A" stroke-width="3" stroke-miterlimit="10" stroke-linecap="round" stroke-linejoin="round"/>
<path d="M40.3783 27.827L39.9508 27.691" stroke="#33363A" stroke-width="3" stroke-miterlimit="10" stroke-linecap="round" stroke-linejoin="round"/>
<path d="M38.1401 27.0838L38.3083 27.1377" stroke="#33363A" stroke-width="3" stroke-miterlimit="10" stroke-linecap="round" stroke-linejoin="round"/>
<path d="M36.5574 26.5467L36.7249 26.6002" stroke="#33363A" stroke-width="3" stroke-miterlimit="10" stroke-linecap="round" stroke-linejoin="round"/>
<path d="M40.9462 31.3378L43.232 32.1126" stroke="#33363A" stroke-width="3" stroke-miterlimit="10" stroke-linecap="round" stroke-linejoin="round"/>
<path d="M39.2856 30.7487L38.8867 30.6224" stroke="#33363A" stroke-width="3" stroke-miterlimit="10" stroke-linecap="round" stroke-linejoin="round"/>
<path d="M37.1993 30.0571L37.356 30.1068" stroke="#33363A" stroke-width="3" stroke-miterlimit="10" stroke-linecap="round" stroke-linejoin="round"/>
<path d="M35.7232 29.5564L35.8796 29.6062" stroke="#33363A" stroke-width="3" stroke-miterlimit="10" stroke-linecap="round" stroke-linejoin="round"/>
<path d="M39.322 34.0793L41.7745 34.9105" stroke="#33363A" stroke-width="3" stroke-miterlimit="10" stroke-linecap="round" stroke-linejoin="round"/>
<path d="M37.538 33.449L37.1116 33.3138" stroke="#33363A" stroke-width="3" stroke-miterlimit="10" stroke-linecap="round" stroke-linejoin="round"/>
<path d="M35.3016 32.7061L35.4699 32.7596" stroke="#33363A" stroke-width="3" stroke-miterlimit="10" stroke-linecap="round" stroke-linejoin="round"/>
<path d="M37.7876 36.8516L40.2405 37.6829" stroke="#33363A" stroke-width="3" stroke-miterlimit="10" stroke-linecap="round" stroke-linejoin="round"/>
<path d="M36.0044 36.2213L35.578 36.0854" stroke="#33363A" stroke-width="3" stroke-miterlimit="10" stroke-linecap="round" stroke-linejoin="round"/>
<path d="M36.1496 39.5887L38.6021 40.4199" stroke="#33363A" stroke-width="3" stroke-miterlimit="10" stroke-linecap="round" stroke-linejoin="round"/>
<path d="M34.7467 39.0872L34.3199 38.9509" stroke="#33363A" stroke-width="3" stroke-miterlimit="10" stroke-linecap="round" stroke-linejoin="round"/>
<path d="M34.3396 42.267L36.7914 43.0983" stroke="#33363A" stroke-width="3" stroke-miterlimit="10" stroke-linecap="round" stroke-linejoin="round"/>
<path d="M46.128 40.154C46.128 46.508 40.0663 46.7673 32.5906 46.7673C25.1148 46.7673 19.0539 46.5084 19.0539 40.154C19.0539 33.8011 25.1148 28.6494 32.5906 28.6494C40.0663 28.6494 46.128 33.8007 46.128 40.154Z" fill="#C17E25"/>
<path d="M46.128 40.154C46.128 46.508 40.0663 46.7673 32.5906 46.7673C25.1148 46.7673 19.0539 46.5084 19.0539 40.154C19.0539 33.8011 25.1148 28.6494 32.5906 28.6494C40.0663 28.6494 46.128 33.8007 46.128 40.154Z" fill="white"/>
<path d="M46.128 40.154C46.128 46.508 40.0663 46.7673 32.5906 46.7673C25.1148 46.7673 19.0539 46.5084 19.0539 40.154C19.0539 33.8011 25.1148 40.1859 32.5906 40.1859C40.0663 40.1859 46.128 33.8007 46.128 40.154Z" fill="#F4F3E9"/>
<path d="M32.5906 43.4764C25.8707 43.4764 20.2948 38.3184 19.2366 41.89C20.2907 46.5548 25.8673 46.7673 32.5906 46.7673C39.3149 46.7673 44.8912 46.5548 45.946 41.89C44.886 38.3184 39.3105 43.4764 32.5906 43.4764Z" fill="#E0DECE"/>
<path d="M46.128 40.154C46.128 46.508 40.0663 46.7673 32.5906 46.7673C25.1148 46.7673 19.0539 46.5084 19.0539 40.154C19.0539 33.8011 25.1148 28.6494 32.5906 28.6494C40.0663 28.6494 46.128 33.8007 46.128 40.154Z" stroke="#33363A" stroke-width="3" stroke-miterlimit="10" stroke-linecap="round" stroke-linejoin="round"/>
<path d="M39.1463 38.2894C39.1463 44.4217 36.2113 45.0933 32.5906 45.0933C28.9699 45.0933 26.0349 44.4213 26.0349 38.2894C26.0349 35.1483 28.9699 32.6021 32.5906 32.6021C36.2113 32.6021 39.1463 35.1483 39.1463 38.2894Z" fill="#D3D1C1"/>
<path d="M39.1463 38.2894C39.1463 41.4299 36.2113 42.8142 32.5906 42.8142C28.9699 42.8142 26.0349 41.4299 26.0349 38.2894C26.0349 35.1483 28.9699 32.6021 32.5906 32.6021C36.2113 32.6021 39.1463 35.1483 39.1463 38.2894Z" fill="#FFBC00"/>
<path d="M32.5906 33.6956C35.9966 33.6956 38.7946 35.9483 39.1144 38.8291C39.1355 38.6549 39.1463 38.4759 39.1463 38.2894C39.1463 35.1483 36.2113 32.6021 32.5906 32.6021C28.9699 32.6021 26.0349 35.1479 26.0349 38.2894C26.0349 38.4759 26.0464 38.6549 26.0668 38.8291C26.3866 35.9483 29.1853 33.6956 32.5906 33.6956Z" fill="#FFCE00"/>
<path d="M39.1463 38.2894C39.1463 41.4299 36.2113 42.8142 32.5906 42.8142C28.9699 42.8142 26.0349 41.4299 26.0349 38.2894C26.0349 35.1483 28.9699 38.2794 32.5906 38.2794C36.2113 38.2794 39.1463 35.1483 39.1463 38.2894Z" fill="#FF9100"/>
<path d="M39.1463 38.2894C39.1463 41.4299 36.2113 42.8142 32.5906 42.8142C28.9699 42.8142 26.0349 41.4299 26.0349 38.2894C26.0349 35.1483 28.9699 32.6021 32.5906 32.6021C36.2113 32.6021 39.1463 35.1483 39.1463 38.2894Z" stroke="#33363A" stroke-width="3" stroke-miterlimit="10" stroke-linecap="round" stroke-linejoin="round"/>
<path d="M27.9707 36.5404C28.2014 34.9091 30.7435 33.7788 31.9194 33.7788" stroke="#FFEF5A" stroke-width="4" stroke-miterlimit="10" stroke-linecap="round" stroke-linejoin="round"/>
<path d="M27.8745 38.2111C27.8861 38.1312 28.0086 38.077 28.0662 38.077" stroke="#FFEF5A" stroke-width="4" stroke-miterlimit="10" stroke-linecap="round" stroke-linejoin="round"/>
<path d="M27.9689 39.4565C27.9718 39.4366 28.0014 39.4234 28.0151 39.4234" stroke="#FFEF5A" stroke-width="2" stroke-miterlimit="10" stroke-linecap="round" stroke-linejoin="round"/>
</g>
<defs>
<clipPath id="clip0_119_498">
<rect width="52" height="52" rx="15" fill="white"/>
</clipPath>
</defs>
</svg>
