<svg width="923" height="866" viewBox="0 0 923 866" fill="none" xmlns="http://www.w3.org/2000/svg">
<mask id="mask0_242_139" style="mask-type:alpha" maskUnits="userSpaceOnUse" x="0" y="0" width="868" height="866">
<mask id="path-1-outside-1_242_139" maskUnits="userSpaceOnUse" x="0.385742" y="0" width="868" height="866" fill="black">
<rect fill="white" x="0.385742" width="868" height="866"/>
<path d="M434.146 216.415L406.909 1L407.122 218.116L353.073 7.80482L380.31 223.22L300.302 21.2018L354.35 231.726L249.658 41.191L329.879 243.209L201.993 67.347L306.898 257.882L158.158 99.4573L285.832 275.107L118.366 136.671L267.319 294.883L83.6818 178.563L251.36 316.999L54.5295 224.496L238.167 340.816L31.3355 273.618L228.166 366.121L14.5251 325.292L221.357 392.49L4.31116 378.668L217.952 419.284L0.906555 432.894L217.952 446.503L4.31116 487.12L221.357 473.51L14.5251 540.495L228.166 499.879L31.3355 592.382L238.167 525.184L54.5295 641.504L251.36 549.001L83.6818 687.437L267.319 570.904L118.366 729.329L285.832 590.68L158.158 766.543L306.898 608.118L201.993 798.44L329.879 622.578L249.658 824.596L354.35 634.274L300.302 844.586L380.31 642.567L353.073 858.195L407.122 647.671L406.909 865L434.146 649.372L461.383 865V647.671L515.432 858.195L487.982 642.567L567.991 844.586L513.942 634.274L618.635 824.596L538.413 622.578L666.3 798.44L561.394 608.118L710.347 766.543L582.461 590.68L749.926 729.329L600.973 570.904L784.611 687.437L616.932 549.001L813.763 641.504L630.125 525.184L836.957 592.382L640.126 499.879L853.767 540.495L646.936 473.51L863.981 487.12L650.34 446.503L867.386 432.894L650.34 419.284L863.981 378.668L646.936 392.49L853.767 325.292L640.126 366.121L836.957 273.618L630.125 340.816L813.763 224.496L616.932 316.999L784.611 178.563L600.973 294.883L749.926 136.671L582.461 275.107L710.347 99.4573L561.394 257.882L666.3 67.347L538.413 243.209L618.635 41.191L513.942 231.726L567.991 21.2018L487.982 223.22L515.432 7.80482L461.383 218.116V1L434.146 216.415Z"/>
</mask>
<path d="M434.146 216.415L406.909 1L407.122 218.116L353.073 7.80482L380.31 223.22L300.302 21.2018L354.35 231.726L249.658 41.191L329.879 243.209L201.993 67.347L306.898 257.882L158.158 99.4573L285.832 275.107L118.366 136.671L267.319 294.883L83.6818 178.563L251.36 316.999L54.5295 224.496L238.167 340.816L31.3355 273.618L228.166 366.121L14.5251 325.292L221.357 392.49L4.31116 378.668L217.952 419.284L0.906555 432.894L217.952 446.503L4.31116 487.12L221.357 473.51L14.5251 540.495L228.166 499.879L31.3355 592.382L238.167 525.184L54.5295 641.504L251.36 549.001L83.6818 687.437L267.319 570.904L118.366 729.329L285.832 590.68L158.158 766.543L306.898 608.118L201.993 798.44L329.879 622.578L249.658 824.596L354.35 634.274L300.302 844.586L380.31 642.567L353.073 858.195L407.122 647.671L406.909 865L434.146 649.372L461.383 865V647.671L515.432 858.195L487.982 642.567L567.991 844.586L513.942 634.274L618.635 824.596L538.413 622.578L666.3 798.44L561.394 608.118L710.347 766.543L582.461 590.68L749.926 729.329L600.973 570.904L784.611 687.437L616.932 549.001L813.763 641.504L630.125 525.184L836.957 592.382L640.126 499.879L853.767 540.495L646.936 473.51L863.981 487.12L650.34 446.503L867.386 432.894L650.34 419.284L863.981 378.668L646.936 392.49L853.767 325.292L640.126 366.121L836.957 273.618L630.125 340.816L813.763 224.496L616.932 316.999L784.611 178.563L600.973 294.883L749.926 136.671L582.461 275.107L710.347 99.4573L561.394 257.882L666.3 67.347L538.413 243.209L618.635 41.191L513.942 231.726L567.991 21.2018L487.982 223.22L515.432 7.80482L461.383 218.116V1L434.146 216.415Z" stroke="black" stroke-width="2" stroke-miterlimit="10" mask="url(#path-1-outside-1_242_139)"/>
</mask>
<g mask="url(#mask0_242_139)">
<rect width="1537.1" height="937.136" rx="45" transform="matrix(-1 0 0 1 1970.63 -49.8229)" fill="black"/>
</g>
<path d="M795.381 627.795L734.438 661L795.381 694.471L828.719 755.281L862.058 694.471L923 661L862.058 627.795L828.719 566.719L795.381 627.795Z" fill="#B9FF66"/>
<path d="M633.531 325.753L524.631 385.088L633.531 444.9L693.104 553.562L752.678 444.9L861.578 385.088L752.678 325.753L693.104 216.615L633.531 325.753Z" fill="black"/>
</svg>
