<svg width="29" height="29" viewBox="0 0 29 29" fill="none" xmlns="http://www.w3.org/2000/svg">
<path d="M25.1816 5.57042C24.5645 4.95296 23.8317 4.46316 23.0252 4.12898C22.2187 3.7948 21.3542 3.6228 20.4812 3.6228C19.6082 3.6228 18.7438 3.7948 17.9373 4.12898C17.1307 4.46316 16.398 4.95296 15.7808 5.57042L14.5 6.85125L13.2191 5.57042C11.9725 4.32379 10.2817 3.62344 8.51873 3.62344C6.75573 3.62344 5.06494 4.32379 3.81831 5.57042C2.57169 6.81705 1.87134 8.50784 1.87134 10.2708C1.87134 12.0338 2.57169 13.7246 3.81831 14.9713L14.5 25.6529L25.1816 14.9713C25.7991 14.3541 26.2889 13.6213 26.6231 12.8148C26.9573 12.0083 27.1293 11.1438 27.1293 10.2708C27.1293 9.39783 26.9573 8.53338 26.6231 7.72686C26.2889 6.92035 25.7991 6.18758 25.1816 5.57042Z" stroke="#191A23" stroke-width="1.5" stroke-linecap="round" stroke-linejoin="round"/>
</svg>
