<svg width="464" height="278" viewBox="0 0 464 278" fill="none" xmlns="http://www.w3.org/2000/svg">
<g filter="url(#filter0_d_579_153)">
<rect x="4" width="456" height="270" rx="10" fill="url(#paint0_linear_579_153)"/>
</g>
<g clip-path="url(#clip0_579_153)">
<g filter="url(#filter1_d_579_153)">
<path d="M340.194 199.136C339.919 199.554 339.919 199.554 339.919 199.554L339.917 199.553L339.912 199.55L339.892 199.537L339.813 199.485L339.505 199.282C339.234 199.103 338.835 198.841 338.323 198.504C337.3 197.83 335.827 196.859 334.027 195.669C330.427 193.289 325.517 190.035 320.279 186.537C310.126 179.757 298.725 172.052 293.25 168.032C282.361 191.965 288.95 214.558 300.18 240.582H380.207C391.583 214.22 398.04 191.246 386.668 167.075C380.983 171.042 369.685 178.984 359.686 186.021C354.54 189.642 349.739 193.023 346.225 195.499C344.467 196.736 343.032 197.748 342.035 198.45L340.885 199.261L340.584 199.473L340.507 199.527L340.488 199.54L340.483 199.544L340.482 199.545C340.482 199.545 340.482 199.545 340.194 199.136ZM340.194 199.136L339.919 199.554L340.203 199.741L340.482 199.545L340.194 199.136Z" fill="#F3F3F3" stroke="black"/>
<mask id="path-3-inside-1_579_153" fill="white">
<path d="M298.099 105.852C298.163 105.934 298.227 106.015 298.291 106.1L298.632 106.548C303.251 119.54 307.691 137.595 305.09 148.365C304.399 149.223 303.72 150.084 303.064 150.955C302.957 151.095 302.85 151.24 302.744 151.381H377.644C377.541 151.24 377.43 151.095 377.324 150.955C376.547 149.935 375.75 148.92 374.931 147.918C372.564 137.335 376.94 119.361 381.495 106.552L381.849 106.1C381.909 106.015 381.973 105.934 382.037 105.852"/>
</mask>
<path d="M298.099 105.852C298.163 105.934 298.227 106.015 298.291 106.1L298.632 106.548C303.251 119.54 307.691 137.595 305.09 148.365C304.399 149.223 303.72 150.084 303.064 150.955C302.957 151.095 302.85 151.24 302.744 151.381H377.644C377.541 151.24 377.43 151.095 377.324 150.955C376.547 149.935 375.75 148.92 374.931 147.918C372.564 137.335 376.94 119.361 381.495 106.552L381.849 106.1C381.909 106.015 381.973 105.934 382.037 105.852" fill="#F3F3F3"/>
<path d="M298.291 106.1L297.491 106.7L297.495 106.706L298.291 106.1ZM298.632 106.548L299.574 106.213L299.522 106.066L299.427 105.942L298.632 106.548ZM305.09 148.365L305.868 148.993L306.009 148.818L306.062 148.6L305.09 148.365ZM303.064 150.955L303.861 151.558L303.862 151.557L303.064 150.955ZM302.744 151.381L301.947 150.777L300.731 152.381H302.744V151.381ZM377.644 151.381V152.381H379.607L378.452 150.793L377.644 151.381ZM377.324 150.955L378.121 150.351L378.119 150.349L377.324 150.955ZM374.931 147.918L373.955 148.136L374.007 148.367L374.156 148.55L374.931 147.918ZM381.495 106.552L380.708 105.935L380.608 106.064L380.553 106.217L381.495 106.552ZM381.849 106.1L382.637 106.716L382.653 106.695L382.668 106.673L381.849 106.1ZM297.314 106.472C297.379 106.555 297.435 106.626 297.491 106.7L299.091 105.5C299.018 105.403 298.946 105.312 298.884 105.233L297.314 106.472ZM297.495 106.706L297.836 107.154L299.427 105.942L299.086 105.494L297.495 106.706ZM297.69 106.883C299.986 113.342 302.235 121.051 303.585 128.469C304.94 135.915 305.368 142.954 304.118 148.131L306.062 148.6C307.413 143.007 306.922 135.633 305.553 128.111C304.178 120.561 301.897 112.746 299.574 106.213L297.69 106.883ZM304.311 147.738C303.615 148.601 302.93 149.471 302.265 150.352L303.862 151.557C304.51 150.698 305.182 149.845 305.868 148.993L304.311 147.738ZM302.266 150.351C302.211 150.424 302.155 150.499 302.102 150.57C302.048 150.642 301.997 150.71 301.947 150.777L303.541 151.985C303.597 151.911 303.652 151.837 303.705 151.766C303.759 151.694 303.81 151.625 303.861 151.558L302.266 150.351ZM302.744 152.381H377.644V150.381H302.744V152.381ZM378.452 150.793C378.343 150.642 378.223 150.486 378.121 150.351L376.527 151.558C376.637 151.705 376.74 151.839 376.835 151.969L378.452 150.793ZM378.119 150.349C377.337 149.321 376.532 148.297 375.705 147.285L374.156 148.55C374.967 149.543 375.758 150.549 376.528 151.56L378.119 150.349ZM375.907 147.699C374.768 142.61 375.239 135.633 376.6 128.251C377.956 120.897 380.173 113.253 382.437 106.887L380.553 106.217C378.262 112.66 376.013 120.408 374.634 127.888C373.259 135.341 372.726 142.643 373.955 148.136L375.907 147.699ZM382.283 107.169L382.637 106.716L381.062 105.483L380.708 105.935L382.283 107.169ZM382.668 106.673C382.709 106.615 382.755 106.557 382.822 106.472L381.252 105.233C381.191 105.31 381.109 105.414 381.03 105.526L382.668 106.673Z" fill="black" mask="url(#path-3-inside-1_579_153)"/>
<path d="M340.309 198.443L340.184 198.531L340.054 198.446C339.783 198.268 339.384 198.005 338.873 197.669C337.851 196.995 336.378 196.024 334.578 194.835C330.979 192.455 326.07 189.202 320.834 185.706C310.57 178.852 299.063 171.074 293.679 167.107C295.286 163.708 297.162 160.368 299.322 157.09C300.483 155.333 301.703 153.595 302.993 151.881H377.394C378.512 153.366 379.582 154.87 380.597 156.389L380.598 156.39C382.746 159.588 384.622 162.847 386.23 166.16C380.588 170.095 369.188 178.109 359.11 185.202C353.965 188.823 349.163 192.205 345.649 194.681C343.891 195.919 342.455 196.93 341.459 197.633L340.309 198.443Z" fill="#B9FF66" stroke="black"/>
<mask id="path-6-inside-2_579_153" fill="white">
<path d="M359.476 105.852H382.036C391.603 93.2283 392.879 75.8784 384.594 62.3534C383.707 60.9061 383.142 59.4367 383.046 57.96C382.979 57.0054 382.946 56.0466 382.946 55.0882C382.946 52.067 383.28 49.0497 383.944 46.0959L388.45 31.2255H368.107L363.233 42.8248C363.19 42.9677 363.146 43.1097 363.1 43.2513C361.347 48.7737 356.169 52.485 350.375 52.3848L329.179 52.0184C323.568 51.9215 318.583 48.2832 316.921 42.9233C316.911 42.8905 316.901 42.8576 316.891 42.8248L312.022 31.2255H291.675L296.18 46.0955C297.086 50.1049 297.387 54.23 297.064 58.329C296.971 59.6231 296.507 60.9061 295.776 62.1742C287.819 75.9996 288.485 93.1643 298.1 105.851H320.912"/>
</mask>
<path d="M359.476 105.852H382.036C391.603 93.2283 392.879 75.8784 384.594 62.3534C383.707 60.9061 383.142 59.4367 383.046 57.96C382.979 57.0054 382.946 56.0466 382.946 55.0882C382.946 52.067 383.28 49.0497 383.944 46.0959L388.45 31.2255H368.107L363.233 42.8248C363.19 42.9677 363.146 43.1097 363.1 43.2513C361.347 48.7737 356.169 52.485 350.375 52.3848L329.179 52.0184C323.568 51.9215 318.583 48.2832 316.921 42.9233C316.911 42.8905 316.901 42.8576 316.891 42.8248L312.022 31.2255H291.675L296.18 46.0955C297.086 50.1049 297.387 54.23 297.064 58.329C296.971 59.6231 296.507 60.9061 295.776 62.1742C287.819 75.9996 288.485 93.1643 298.1 105.851H320.912" fill="#B9FF66"/>
<path d="M382.036 105.852V106.852H382.533L382.833 106.456L382.036 105.852ZM384.594 62.3534L385.446 61.831L385.446 61.8309L384.594 62.3534ZM383.046 57.96L384.044 57.8949L384.044 57.8901L383.046 57.96ZM383.944 46.0959L382.987 45.8059L382.977 45.8408L382.969 45.8764L383.944 46.0959ZM388.45 31.2255L389.407 31.5155L389.798 30.2255H388.45V31.2255ZM368.107 31.2255V30.2255H367.442L367.185 30.8382L368.107 31.2255ZM363.233 42.8248L362.311 42.4374L362.292 42.4846L362.277 42.5335L363.233 42.8248ZM363.1 43.2513L362.148 42.9472L362.147 42.9487L363.1 43.2513ZM350.375 52.3848L350.393 51.3849H350.393L350.375 52.3848ZM329.179 52.0184L329.196 51.0185H329.196L329.179 52.0184ZM316.921 42.9233L317.876 42.6271L317.876 42.6257L316.921 42.9233ZM316.891 42.8248L317.849 42.5386L317.834 42.4872L317.813 42.4377L316.891 42.8248ZM312.022 31.2255L312.944 30.8385L312.686 30.2255H312.022V31.2255ZM291.675 31.2255V30.2255H290.327L290.718 31.5155L291.675 31.2255ZM296.18 46.0955L297.156 45.8752L297.148 45.84L297.138 45.8055L296.18 46.0955ZM297.064 58.329L296.067 58.2505L296.066 58.2573L297.064 58.329ZM295.776 62.1742L294.91 61.6748L294.909 61.6754L295.776 62.1742ZM298.1 105.851L297.303 106.455L297.603 106.851H298.1V105.851ZM359.476 106.852H382.036V104.852H359.476V106.852ZM382.833 106.456C392.635 93.5216 393.958 75.7256 385.446 61.831L383.741 62.8757C391.8 76.0313 390.57 92.9349 381.239 105.248L382.833 106.456ZM385.446 61.8309C384.615 60.4738 384.127 59.1612 384.044 57.8949L382.048 58.0252C382.158 59.7122 382.799 61.3385 383.741 62.8758L385.446 61.8309ZM384.044 57.8901C383.978 56.959 383.946 56.0235 383.946 55.0882H381.946C381.946 56.0697 381.98 57.0519 382.049 58.03L384.044 57.8901ZM383.946 55.0882C383.946 52.1406 384.272 49.1969 384.92 46.3154L382.969 45.8764C382.288 48.9024 381.946 51.9933 381.946 55.0882H383.946ZM384.901 46.3859L389.407 31.5155L387.493 30.9356L382.987 45.8059L384.901 46.3859ZM388.45 30.2255H368.107V32.2255H388.45V30.2255ZM367.185 30.8382L362.311 42.4374L364.155 43.2121L369.029 31.6129L367.185 30.8382ZM362.277 42.5335C362.235 42.6719 362.192 42.8096 362.148 42.9472L364.053 43.5555C364.099 43.4098 364.145 43.2635 364.19 43.1161L362.277 42.5335ZM362.147 42.9487C360.528 48.0487 355.745 51.4775 350.393 51.3849L350.358 53.3846C356.593 53.4925 362.166 49.4987 364.053 43.554L362.147 42.9487ZM350.393 51.3849L329.196 51.0185L329.162 53.0182L350.358 53.3846L350.393 51.3849ZM329.196 51.0185C324.004 50.9289 319.407 47.5627 317.876 42.6271L315.966 43.2195C317.76 49.0037 323.132 52.9142 329.162 53.0182L329.196 51.0185ZM317.876 42.6257C317.865 42.5919 317.857 42.5648 317.849 42.5386L315.933 43.111C315.945 43.1505 315.957 43.189 315.967 43.2209L317.876 42.6257ZM317.813 42.4377L312.944 30.8385L311.1 31.6126L315.969 43.2119L317.813 42.4377ZM312.022 30.2255H291.675V32.2255H312.022V30.2255ZM290.718 31.5155L295.223 46.3854L297.138 45.8055L292.632 30.9355L290.718 31.5155ZM295.205 46.3158C296.089 50.2279 296.382 54.2522 296.067 58.2505L298.061 58.4075C298.392 54.2077 298.083 49.9819 297.156 45.8752L295.205 46.3158ZM296.066 58.2573C295.987 59.3605 295.589 60.4973 294.91 61.6748L296.642 62.6737C297.426 61.3149 297.955 59.8857 298.061 58.4007L296.066 58.2573ZM294.909 61.6754C286.763 75.8293 287.432 93.4304 297.303 106.455L298.897 105.247C289.538 92.8982 288.874 76.1698 296.643 62.6731L294.909 61.6754ZM298.1 106.851H320.912V104.851H298.1V106.851Z" fill="black" mask="url(#path-6-inside-2_579_153)"/>
<g filter="url(#filter2_d_579_153)">
<path d="M423.866 113.798L395.079 134.054L423.866 154.31V142.757H445.122V125.351H423.866V113.798Z" fill="#F3F3F3"/>
<path d="M423.866 142.257H423.366V142.757V153.346L395.948 134.054L423.366 114.762V125.351V125.851H423.866H444.622V142.257H423.866Z" stroke="black"/>
</g>
<g filter="url(#filter3_d_579_153)">
<path d="M256.521 154.31L285.308 134.054L256.521 113.798V125.351H235.265V142.757H256.521V154.31Z" fill="#F3F3F3"/>
<path d="M256.521 125.851H257.021V125.351V114.762L284.439 134.054L257.021 153.346V142.757V142.257H256.521H235.765V125.851H256.521Z" stroke="black"/>
</g>
</g>
<line x1="340.5" y1="199" x2="340.5" y2="241" stroke="black"/>
<line x1="320" y1="106.5" x2="361" y2="106.5" stroke="black"/>
</g>
<mask id="path-14-outside-3_579_153" maskUnits="userSpaceOnUse" x="31" y="124" width="173" height="37" fill="black">
<rect fill="white" x="31" y="124" width="173" height="37"/>
<path d="M32.392 154V125.632H49.048V154H42.232V130.24H39.256V154H32.392ZM59.6691 154.528C57.9091 154.528 56.4371 154.336 55.2531 153.952C54.1011 153.536 53.2211 152.736 52.6131 151.552C52.0371 150.368 51.7491 148.624 51.7491 146.32V136.144C51.7491 133.904 52.3891 132.304 53.6691 131.344C54.9491 130.352 56.9491 129.856 59.6691 129.856C62.3571 129.856 64.3411 130.336 65.6211 131.296C66.9331 132.256 67.5891 133.872 67.5891 136.144V146.272C67.5891 148.608 67.2851 150.368 66.6771 151.552C66.1011 152.736 65.2211 153.536 64.0371 153.952C62.8531 154.336 61.3971 154.528 59.6691 154.528ZM59.6691 151.168C60.2771 151.168 60.6771 150.992 60.8691 150.64C61.0611 150.256 61.1571 149.712 61.1571 149.008V135.376C61.1571 134.672 61.0611 134.144 60.8691 133.792C60.6771 133.408 60.2771 133.216 59.6691 133.216C59.0291 133.216 58.6131 133.408 58.4211 133.792C58.2611 134.144 58.1811 134.672 58.1811 135.376V149.008C58.1811 149.712 58.2611 150.256 58.4211 150.64C58.6131 150.992 59.0291 151.168 59.6691 151.168ZM68.8727 154L73.3848 141.712L69.7368 130.24H75.8328L77.7048 136.912L80.1048 130.24H86.0088L81.8328 141.712L85.8168 154H79.7208L77.6568 147.04L75.2088 154H68.8727ZM91.4541 159.568C90.4301 159.568 89.4541 159.488 88.5261 159.328C87.5981 159.2 86.8621 159.072 86.3181 158.944V155.584C86.5421 155.648 86.8461 155.712 87.2301 155.776C87.6141 155.84 88.0141 155.872 88.4301 155.872C88.8141 155.872 89.2461 155.808 89.7261 155.68C90.2061 155.552 90.5101 155.152 90.6381 154.48C90.7021 154.064 90.7021 153.456 90.6381 152.656L86.0301 130.24H92.6541L95.0061 147.904H95.0541L97.4061 130.24H103.502L99.1341 151.504C98.5581 154.384 97.6461 156.448 96.3981 157.696C95.1821 158.944 93.5341 159.568 91.4541 159.568ZM104.238 159.568V150.256H105.774C106.094 150.192 106.494 150 106.974 149.68C107.454 149.36 107.902 148.864 108.318 148.192C108.734 147.52 108.99 146.608 109.086 145.456L110.862 130.24H125.406V150.256H129.198V159.568H123.87V155.296H109.566V159.568H104.238ZM113.934 150.256H118.542V134.848H116.718L115.422 145.312C115.294 146.304 115.134 147.296 114.942 148.288C114.75 149.28 114.414 149.936 113.934 150.256ZM139.12 154.384C137.456 154.384 136.032 154.208 134.848 153.856C133.664 153.472 132.752 152.704 132.112 151.552C131.504 150.4 131.2 148.624 131.2 146.224V136C131.2 133.664 131.856 132.064 133.168 131.2C134.512 130.304 136.48 129.856 139.072 129.856C141.664 129.856 143.616 130.304 144.928 131.2C146.272 132.064 146.944 133.664 146.944 136V142.576H137.632V148.96C137.632 149.76 137.744 150.304 137.968 150.592C138.192 150.88 138.576 151.024 139.12 151.024C139.6 151.024 139.952 150.88 140.176 150.592C140.4 150.304 140.512 149.76 140.512 148.96V144.928H146.944V146.176C146.944 148.576 146.624 150.368 145.984 151.552C145.376 152.704 144.48 153.472 143.296 153.856C142.144 154.208 140.752 154.384 139.12 154.384ZM137.632 139.744H140.512V135.184C140.512 134.448 140.4 133.936 140.176 133.648C139.952 133.36 139.584 133.216 139.072 133.216C138.56 133.216 138.192 133.36 137.968 133.648C137.744 133.936 137.632 134.448 137.632 135.184V139.744ZM149.298 154V130.24H155.73V139.312H158.802V130.24H165.186V154H158.802V144.16H155.73V154H149.298ZM167.955 154V130.24H173.571V142.48L178.083 130.24H183.699V154H178.083V140.176C177.251 142.48 176.419 144.784 175.587 147.088C174.787 149.392 173.955 151.696 173.091 154H167.955ZM194.198 154.384C192.534 154.384 191.11 154.208 189.926 153.856C188.742 153.472 187.83 152.704 187.19 151.552C186.582 150.4 186.278 148.624 186.278 146.224V136C186.278 133.664 186.934 132.064 188.246 131.2C189.59 130.304 191.558 129.856 194.15 129.856C196.742 129.856 198.694 130.304 200.006 131.2C201.35 132.064 202.022 133.664 202.022 136V142.576H192.71V148.96C192.71 149.76 192.822 150.304 193.046 150.592C193.27 150.88 193.654 151.024 194.198 151.024C194.678 151.024 195.03 150.88 195.254 150.592C195.478 150.304 195.59 149.76 195.59 148.96V144.928H202.022V146.176C202.022 148.576 201.702 150.368 201.062 151.552C200.454 152.704 199.558 153.472 198.374 153.856C197.222 154.208 195.83 154.384 194.198 154.384ZM192.71 139.744H195.59V135.184C195.59 134.448 195.478 133.936 195.254 133.648C195.03 133.36 194.662 133.216 194.15 133.216C193.638 133.216 193.27 133.36 193.046 133.648C192.822 133.936 192.71 134.448 192.71 135.184V139.744Z"/>
</mask>
<path d="M32.392 154V125.632H49.048V154H42.232V130.24H39.256V154H32.392ZM59.6691 154.528C57.9091 154.528 56.4371 154.336 55.2531 153.952C54.1011 153.536 53.2211 152.736 52.6131 151.552C52.0371 150.368 51.7491 148.624 51.7491 146.32V136.144C51.7491 133.904 52.3891 132.304 53.6691 131.344C54.9491 130.352 56.9491 129.856 59.6691 129.856C62.3571 129.856 64.3411 130.336 65.6211 131.296C66.9331 132.256 67.5891 133.872 67.5891 136.144V146.272C67.5891 148.608 67.2851 150.368 66.6771 151.552C66.1011 152.736 65.2211 153.536 64.0371 153.952C62.8531 154.336 61.3971 154.528 59.6691 154.528ZM59.6691 151.168C60.2771 151.168 60.6771 150.992 60.8691 150.64C61.0611 150.256 61.1571 149.712 61.1571 149.008V135.376C61.1571 134.672 61.0611 134.144 60.8691 133.792C60.6771 133.408 60.2771 133.216 59.6691 133.216C59.0291 133.216 58.6131 133.408 58.4211 133.792C58.2611 134.144 58.1811 134.672 58.1811 135.376V149.008C58.1811 149.712 58.2611 150.256 58.4211 150.64C58.6131 150.992 59.0291 151.168 59.6691 151.168ZM68.8727 154L73.3848 141.712L69.7368 130.24H75.8328L77.7048 136.912L80.1048 130.24H86.0088L81.8328 141.712L85.8168 154H79.7208L77.6568 147.04L75.2088 154H68.8727ZM91.4541 159.568C90.4301 159.568 89.4541 159.488 88.5261 159.328C87.5981 159.2 86.8621 159.072 86.3181 158.944V155.584C86.5421 155.648 86.8461 155.712 87.2301 155.776C87.6141 155.84 88.0141 155.872 88.4301 155.872C88.8141 155.872 89.2461 155.808 89.7261 155.68C90.2061 155.552 90.5101 155.152 90.6381 154.48C90.7021 154.064 90.7021 153.456 90.6381 152.656L86.0301 130.24H92.6541L95.0061 147.904H95.0541L97.4061 130.24H103.502L99.1341 151.504C98.5581 154.384 97.6461 156.448 96.3981 157.696C95.1821 158.944 93.5341 159.568 91.4541 159.568ZM104.238 159.568V150.256H105.774C106.094 150.192 106.494 150 106.974 149.68C107.454 149.36 107.902 148.864 108.318 148.192C108.734 147.52 108.99 146.608 109.086 145.456L110.862 130.24H125.406V150.256H129.198V159.568H123.87V155.296H109.566V159.568H104.238ZM113.934 150.256H118.542V134.848H116.718L115.422 145.312C115.294 146.304 115.134 147.296 114.942 148.288C114.75 149.28 114.414 149.936 113.934 150.256ZM139.12 154.384C137.456 154.384 136.032 154.208 134.848 153.856C133.664 153.472 132.752 152.704 132.112 151.552C131.504 150.4 131.2 148.624 131.2 146.224V136C131.2 133.664 131.856 132.064 133.168 131.2C134.512 130.304 136.48 129.856 139.072 129.856C141.664 129.856 143.616 130.304 144.928 131.2C146.272 132.064 146.944 133.664 146.944 136V142.576H137.632V148.96C137.632 149.76 137.744 150.304 137.968 150.592C138.192 150.88 138.576 151.024 139.12 151.024C139.6 151.024 139.952 150.88 140.176 150.592C140.4 150.304 140.512 149.76 140.512 148.96V144.928H146.944V146.176C146.944 148.576 146.624 150.368 145.984 151.552C145.376 152.704 144.48 153.472 143.296 153.856C142.144 154.208 140.752 154.384 139.12 154.384ZM137.632 139.744H140.512V135.184C140.512 134.448 140.4 133.936 140.176 133.648C139.952 133.36 139.584 133.216 139.072 133.216C138.56 133.216 138.192 133.36 137.968 133.648C137.744 133.936 137.632 134.448 137.632 135.184V139.744ZM149.298 154V130.24H155.73V139.312H158.802V130.24H165.186V154H158.802V144.16H155.73V154H149.298ZM167.955 154V130.24H173.571V142.48L178.083 130.24H183.699V154H178.083V140.176C177.251 142.48 176.419 144.784 175.587 147.088C174.787 149.392 173.955 151.696 173.091 154H167.955ZM194.198 154.384C192.534 154.384 191.11 154.208 189.926 153.856C188.742 153.472 187.83 152.704 187.19 151.552C186.582 150.4 186.278 148.624 186.278 146.224V136C186.278 133.664 186.934 132.064 188.246 131.2C189.59 130.304 191.558 129.856 194.15 129.856C196.742 129.856 198.694 130.304 200.006 131.2C201.35 132.064 202.022 133.664 202.022 136V142.576H192.71V148.96C192.71 149.76 192.822 150.304 193.046 150.592C193.27 150.88 193.654 151.024 194.198 151.024C194.678 151.024 195.03 150.88 195.254 150.592C195.478 150.304 195.59 149.76 195.59 148.96V144.928H202.022V146.176C202.022 148.576 201.702 150.368 201.062 151.552C200.454 152.704 199.558 153.472 198.374 153.856C197.222 154.208 195.83 154.384 194.198 154.384ZM192.71 139.744H195.59V135.184C195.59 134.448 195.478 133.936 195.254 133.648C195.03 133.36 194.662 133.216 194.15 133.216C193.638 133.216 193.27 133.36 193.046 133.648C192.822 133.936 192.71 134.448 192.71 135.184V139.744Z" fill="white"/>
<path d="M32.392 154H31.392V155H32.392V154ZM32.392 125.632V124.632H31.392V125.632H32.392ZM49.048 125.632H50.048V124.632H49.048V125.632ZM49.048 154V155H50.048V154H49.048ZM42.232 154H41.232V155H42.232V154ZM42.232 130.24H43.232V129.24H42.232V130.24ZM39.256 130.24V129.24H38.256V130.24H39.256ZM39.256 154V155H40.256V154H39.256ZM33.392 154V125.632H31.392V154H33.392ZM32.392 126.632H49.048V124.632H32.392V126.632ZM48.048 125.632V154H50.048V125.632H48.048ZM49.048 153H42.232V155H49.048V153ZM43.232 154V130.24H41.232V154H43.232ZM42.232 129.24H39.256V131.24H42.232V129.24ZM38.256 130.24V154H40.256V130.24H38.256ZM39.256 153H32.392V155H39.256V153ZM55.2531 153.952L54.9135 154.893L54.929 154.898L54.9446 154.903L55.2531 153.952ZM52.6131 151.552L51.7139 151.989L51.7186 151.999L51.7236 152.009L52.6131 151.552ZM53.6691 131.344L54.2691 132.144L54.2754 132.139L54.2817 132.134L53.6691 131.344ZM65.6211 131.296L65.0211 132.096L65.0306 132.103L65.6211 131.296ZM66.6771 151.552L65.7876 151.095L65.7826 151.105L65.7779 151.115L66.6771 151.552ZM64.0371 153.952L64.3456 154.903L64.3572 154.899L64.3686 154.895L64.0371 153.952ZM60.8691 150.64L61.747 151.119L61.7556 151.103L61.7636 151.087L60.8691 150.64ZM60.8691 133.792L59.9747 134.239L59.9827 134.255L59.9912 134.271L60.8691 133.792ZM58.4211 133.792L57.5267 133.345L57.5184 133.361L57.5108 133.378L58.4211 133.792ZM58.4211 150.64L57.498 151.025L57.5182 151.073L57.5432 151.119L58.4211 150.64ZM59.6691 153.528C57.9742 153.528 56.6142 153.342 55.5616 153.001L54.9446 154.903C56.2601 155.33 57.8441 155.528 59.6691 155.528V153.528ZM55.5928 153.011C54.7002 152.689 54.0061 152.075 53.5027 151.095L51.7236 152.009C52.4362 153.397 53.502 154.383 54.9135 154.893L55.5928 153.011ZM53.5124 151.115C53.0351 150.133 52.7491 148.57 52.7491 146.32H50.7491C50.7491 148.678 51.0392 150.603 51.7139 151.989L53.5124 151.115ZM52.7491 146.32V136.144H50.7491V146.32H52.7491ZM52.7491 136.144C52.7491 134.085 53.3317 132.847 54.2691 132.144L53.0691 130.544C51.4465 131.761 50.7491 133.723 50.7491 136.144H52.7491ZM54.2817 132.134C55.3023 131.343 57.0337 130.856 59.6691 130.856V128.856C56.8646 128.856 54.596 129.361 53.0566 130.554L54.2817 132.134ZM59.6691 130.856C62.2742 130.856 63.997 131.328 65.0211 132.096L66.2211 130.496C64.6853 129.344 62.4401 128.856 59.6691 128.856V130.856ZM65.0306 132.103C65.9925 132.807 66.5891 134.055 66.5891 136.144H68.5891C68.5891 133.689 67.8738 131.705 66.2116 130.489L65.0306 132.103ZM66.5891 136.144V146.272H68.5891V136.144H66.5891ZM66.5891 146.272C66.5891 148.552 66.2872 150.122 65.7876 151.095L67.5667 152.009C68.283 150.614 68.5891 148.664 68.5891 146.272H66.5891ZM65.7779 151.115C65.3108 152.075 64.6279 152.685 63.7056 153.009L64.3686 154.895C65.8144 154.387 66.8914 153.397 67.5764 151.989L65.7779 151.115ZM63.7286 153.001C62.6746 153.343 61.3299 153.528 59.6691 153.528V155.528C61.4644 155.528 63.0317 155.329 64.3456 154.903L63.7286 153.001ZM59.6691 152.168C60.4364 152.168 61.2992 151.94 61.747 151.119L59.9912 150.161C59.9975 150.15 60.008 150.136 60.0205 150.125C60.0323 150.114 60.0361 150.115 60.0224 150.121C59.9887 150.136 59.8851 150.168 59.6691 150.168V152.168ZM61.7636 151.087C62.0557 150.503 62.1571 149.78 62.1571 149.008H60.1571C60.1571 149.644 60.0665 150.009 59.9747 150.193L61.7636 151.087ZM62.1571 149.008V135.376H60.1571V149.008H62.1571ZM62.1571 135.376C62.1571 134.614 62.0588 133.885 61.747 133.313L59.9912 134.271C60.0634 134.403 60.1571 134.73 60.1571 135.376H62.1571ZM61.7636 133.345C61.3343 132.486 60.4757 132.216 59.6691 132.216V134.216C59.8757 134.216 59.9678 134.25 59.9924 134.262C60.002 134.266 59.998 134.266 59.9888 134.257C59.9847 134.253 59.9811 134.248 59.9782 134.245C59.9754 134.241 59.9744 134.239 59.9747 134.239L61.7636 133.345ZM59.6691 132.216C58.8584 132.216 57.9645 132.469 57.5267 133.345L59.3156 134.239C59.3128 134.245 59.3056 134.256 59.2949 134.266C59.2847 134.276 59.2818 134.275 59.2962 134.268C59.3315 134.252 59.4401 134.216 59.6691 134.216V132.216ZM57.5108 133.378C57.2613 133.927 57.1811 134.628 57.1811 135.376H59.1811C59.1811 134.716 59.2609 134.361 59.3315 134.206L57.5108 133.378ZM57.1811 135.376V149.008H59.1811V135.376H57.1811ZM57.1811 149.008C57.1811 149.765 57.2639 150.463 57.498 151.025L59.3442 150.255C59.2584 150.049 59.1811 149.659 59.1811 149.008H57.1811ZM57.5432 151.119C57.9993 151.955 58.8966 152.168 59.6691 152.168V150.168C59.4313 150.168 59.3115 150.134 59.2668 150.115C59.248 150.107 59.2504 150.105 59.2628 150.116C59.2764 150.128 59.2897 150.144 59.299 150.161L57.5432 151.119ZM68.8727 154L67.934 153.655L67.4403 155H68.8727V154ZM73.3848 141.712L74.3235 142.057L74.4415 141.735L74.3377 141.409L73.3848 141.712ZM69.7368 130.24V129.24H68.3694L68.7838 130.543L69.7368 130.24ZM75.8327 130.24L76.7956 129.97L76.5908 129.24H75.8327V130.24ZM77.7048 136.912L76.7419 137.182L77.5869 140.194L78.6457 137.25L77.7048 136.912ZM80.1048 130.24V129.24H79.4017L79.1638 129.902L80.1048 130.24ZM86.0088 130.24L86.9484 130.582L87.437 129.24H86.0088V130.24ZM81.8327 141.712L80.8931 141.37L80.7754 141.693L80.8815 142.02L81.8327 141.712ZM85.8167 154V155H87.1922L86.768 153.692L85.8167 154ZM79.7207 154L78.762 154.284L78.9743 155H79.7207V154ZM77.6567 147.04L78.6155 146.756L77.7377 143.796L76.7134 146.708L77.6567 147.04ZM75.2088 154V155H75.9171L76.1521 154.332L75.2088 154ZM69.8115 154.345L74.3235 142.057L72.446 141.367L67.934 153.655L69.8115 154.345ZM74.3377 141.409L70.6897 129.937L68.7838 130.543L72.4318 142.015L74.3377 141.409ZM69.7368 131.24H75.8327V129.24H69.7368V131.24ZM74.8699 130.51L76.7419 137.182L78.6676 136.642L76.7956 129.97L74.8699 130.51ZM78.6457 137.25L81.0457 130.578L79.1638 129.902L76.7638 136.574L78.6457 137.25ZM80.1048 131.24H86.0088V129.24H80.1048V131.24ZM85.0691 129.898L80.8931 141.37L82.7724 142.054L86.9484 130.582L85.0691 129.898ZM80.8815 142.02L84.8655 154.308L86.768 153.692L82.784 141.404L80.8815 142.02ZM85.8167 153H79.7207V155H85.8167V153ZM80.6795 153.716L78.6155 146.756L76.698 147.324L78.762 154.284L80.6795 153.716ZM76.7134 146.708L74.2654 153.668L76.1521 154.332L78.6001 147.372L76.7134 146.708ZM75.2088 153H68.8727V155H75.2088V153ZM88.5261 159.328L88.696 158.343L88.6794 158.34L88.6628 158.337L88.5261 159.328ZM86.3181 158.944H85.3181V159.736L86.0891 159.917L86.3181 158.944ZM86.3181 155.584L86.5928 154.622L85.3181 154.258V155.584H86.3181ZM87.2301 155.776L87.0657 156.762L87.2301 155.776ZM89.7261 155.68L89.4685 154.714L89.7261 155.68ZM90.6381 154.48L91.6205 154.667L91.6238 154.65L91.6265 154.632L90.6381 154.48ZM90.6381 152.656L91.6349 152.576L91.63 152.515L91.6176 152.455L90.6381 152.656ZM86.0301 130.24V129.24H84.8036L85.0506 130.441L86.0301 130.24ZM92.6541 130.24L93.6454 130.108L93.5298 129.24H92.6541V130.24ZM95.0061 147.904L94.0149 148.036L94.1305 148.904H95.0061V147.904ZM95.0541 147.904V148.904H95.9298L96.0454 148.036L95.0541 147.904ZM97.4061 130.24V129.24H96.5304L96.4149 130.108L97.4061 130.24ZM103.502 130.24L104.482 130.441L104.728 129.24H103.502V130.24ZM99.1341 151.504L98.1546 151.303L98.1535 151.308L99.1341 151.504ZM96.3981 157.696L95.691 156.989L95.6819 156.998L96.3981 157.696ZM91.4541 158.568C90.4822 158.568 89.5633 158.492 88.696 158.343L88.3562 160.313C89.345 160.484 90.3781 160.568 91.4541 160.568V158.568ZM88.6628 158.337C87.7481 158.211 87.0472 158.088 86.5472 157.971L86.0891 159.917C86.6771 160.056 87.4481 160.189 88.3895 160.319L88.6628 158.337ZM87.3181 158.944V155.584H85.3181V158.944H87.3181ZM86.0434 156.546C86.3197 156.624 86.6656 156.696 87.0657 156.762L87.3945 154.79C87.0266 154.728 86.7646 154.672 86.5928 154.622L86.0434 156.546ZM87.0657 156.762C87.5076 156.836 87.9628 156.872 88.4301 156.872V154.872C88.0655 154.872 87.7206 154.844 87.3945 154.79L87.0657 156.762ZM88.4301 156.872C88.9222 156.872 89.4429 156.79 89.9838 156.646L89.4685 154.714C89.0493 154.826 88.706 154.872 88.4301 154.872V156.872ZM89.9838 156.646C90.9739 156.382 91.4521 155.551 91.6205 154.667L89.6558 154.293C89.6108 154.529 89.5489 154.638 89.518 154.679C89.5041 154.697 89.496 154.703 89.4945 154.704C89.4932 154.704 89.4868 154.709 89.4685 154.714L89.9838 156.646ZM91.6265 154.632C91.7086 154.099 91.7006 153.397 91.6349 152.576L89.6413 152.736C89.7036 153.515 89.6957 154.029 89.6498 154.328L91.6265 154.632ZM91.6176 152.455L87.0096 130.039L85.0506 130.441L89.6586 152.857L91.6176 152.455ZM86.0301 131.24H92.6541V129.24H86.0301V131.24ZM91.6629 130.372L94.0149 148.036L95.9974 147.772L93.6454 130.108L91.6629 130.372ZM95.0061 148.904H95.0541V146.904H95.0061V148.904ZM96.0454 148.036L98.3974 130.372L96.4149 130.108L94.0629 147.772L96.0454 148.036ZM97.4061 131.24H103.502V129.24H97.4061V131.24ZM102.523 130.039L98.1546 151.303L100.114 151.705L104.482 130.441L102.523 130.039ZM98.1535 151.308C97.5931 154.11 96.7345 155.945 95.691 156.989L97.1052 158.403C98.5577 156.951 99.5231 154.658 100.115 151.7L98.1535 151.308ZM95.6819 156.998C94.6901 158.016 93.3207 158.568 91.4541 158.568V160.568C93.7476 160.568 95.6742 159.872 97.1144 158.394L95.6819 156.998ZM104.238 159.568H103.238V160.568H104.238V159.568ZM104.238 150.256V149.256H103.238V150.256H104.238ZM105.774 150.256V151.256H105.873L105.97 151.237L105.774 150.256ZM106.974 149.68L106.419 148.848L106.974 149.68ZM108.318 148.192L109.168 148.718H109.168L108.318 148.192ZM109.086 145.456L108.093 145.34L108.091 145.356L108.089 145.373L109.086 145.456ZM110.862 130.24V129.24H109.972L109.869 130.124L110.862 130.24ZM125.406 130.24H126.406V129.24H125.406V130.24ZM125.406 150.256H124.406V151.256H125.406V150.256ZM129.198 150.256H130.198V149.256H129.198V150.256ZM129.198 159.568V160.568H130.198V159.568H129.198ZM123.87 159.568H122.87V160.568H123.87V159.568ZM123.87 155.296H124.87V154.296H123.87V155.296ZM109.566 155.296V154.296H108.566V155.296H109.566ZM109.566 159.568V160.568H110.566V159.568H109.566ZM113.934 150.256L113.379 149.424L110.631 151.256H113.934V150.256ZM118.542 150.256V151.256H119.542V150.256H118.542ZM118.542 134.848H119.542V133.848H118.542V134.848ZM116.718 134.848V133.848H115.834L115.725 134.725L116.718 134.848ZM115.422 145.312L116.414 145.44L116.414 145.435L115.422 145.312ZM114.942 148.288L115.924 148.478L114.942 148.288ZM105.238 159.568V150.256H103.238V159.568H105.238ZM104.238 151.256H105.774V149.256H104.238V151.256ZM105.97 151.237C106.481 151.134 107.01 150.857 107.529 150.512L106.419 148.848C105.977 149.143 105.707 149.25 105.578 149.275L105.97 151.237ZM107.529 150.512C108.163 150.089 108.703 149.47 109.168 148.718L107.468 147.666C107.101 148.258 106.744 148.631 106.419 148.848L107.529 150.512ZM109.168 148.718C109.697 147.865 109.979 146.781 110.082 145.539L108.089 145.373C108.001 146.435 107.771 147.175 107.468 147.666L109.168 148.718ZM110.079 145.572L111.855 130.356L109.869 130.124L108.093 145.34L110.079 145.572ZM110.862 131.24H125.406V129.24H110.862V131.24ZM124.406 130.24V150.256H126.406V130.24H124.406ZM125.406 151.256H129.198V149.256H125.406V151.256ZM128.198 150.256V159.568H130.198V150.256H128.198ZM129.198 158.568H123.87V160.568H129.198V158.568ZM124.87 159.568V155.296H122.87V159.568H124.87ZM123.87 154.296H109.566V156.296H123.87V154.296ZM108.566 155.296V159.568H110.566V155.296H108.566ZM109.566 158.568H104.238V160.568H109.566V158.568ZM113.934 151.256H118.542V149.256H113.934V151.256ZM119.542 150.256V134.848H117.542V150.256H119.542ZM118.542 133.848H116.718V135.848H118.542V133.848ZM115.725 134.725L114.429 145.189L116.414 145.435L117.71 134.971L115.725 134.725ZM114.43 145.184C114.305 146.155 114.148 147.126 113.96 148.098L115.924 148.478C116.12 147.466 116.283 146.453 116.414 145.44L114.43 145.184ZM113.96 148.098C113.784 149.01 113.519 149.331 113.379 149.424L114.489 151.088C115.309 150.541 115.716 149.55 115.924 148.478L113.96 148.098ZM134.848 153.856L134.539 154.807L134.551 154.811L134.563 154.815L134.848 153.856ZM132.112 151.552L131.228 152.019L131.233 152.028L131.238 152.038L132.112 151.552ZM133.168 131.2L133.718 132.035L133.723 132.032L133.168 131.2ZM144.928 131.2L144.364 132.026L144.376 132.034L144.387 132.041L144.928 131.2ZM146.944 142.576V143.576H147.944V142.576H146.944ZM137.632 142.576V141.576H136.632V142.576H137.632ZM137.968 150.592L137.179 151.206L137.968 150.592ZM140.176 150.592L140.965 151.206L140.176 150.592ZM140.512 144.928V143.928H139.512V144.928H140.512ZM146.944 144.928H147.944V143.928H146.944V144.928ZM145.984 151.552L145.104 151.076L145.1 151.085L145.984 151.552ZM143.296 153.856L143.588 154.812L143.596 154.81L143.605 154.807L143.296 153.856ZM137.632 139.744H136.632V140.744H137.632V139.744ZM140.512 139.744V140.744H141.512V139.744H140.512ZM139.12 153.384C137.521 153.384 136.199 153.214 135.133 152.897L134.563 154.815C135.865 155.202 137.391 155.384 139.12 155.384V153.384ZM135.157 152.905C134.228 152.604 133.511 152.011 132.986 151.066L131.238 152.038C131.993 153.397 133.1 154.34 134.539 154.807L135.157 152.905ZM132.996 151.085C132.504 150.153 132.2 148.577 132.2 146.224H130.2C130.2 148.671 130.504 150.647 131.228 152.019L132.996 151.085ZM132.2 146.224V136H130.2V146.224H132.2ZM132.2 136C132.2 133.826 132.807 132.635 133.718 132.035L132.618 130.365C130.905 131.493 130.2 133.502 130.2 136H132.2ZM133.723 132.032C134.831 131.293 136.568 130.856 139.072 130.856V128.856C136.392 128.856 134.193 129.315 132.613 130.368L133.723 132.032ZM139.072 130.856C141.578 130.856 143.293 131.294 144.364 132.026L145.492 130.374C143.939 129.314 141.75 128.856 139.072 128.856V130.856ZM144.387 132.041C145.327 132.645 145.944 133.835 145.944 136H147.944C147.944 133.493 147.217 131.483 145.469 130.359L144.387 132.041ZM145.944 136V142.576H147.944V136H145.944ZM146.944 141.576H137.632V143.576H146.944V141.576ZM136.632 142.576V148.96H138.632V142.576H136.632ZM136.632 148.96C136.632 149.401 136.662 149.809 136.737 150.17C136.809 150.521 136.936 150.894 137.179 151.206L138.757 149.978C138.776 150.002 138.735 149.959 138.695 149.766C138.658 149.583 138.632 149.319 138.632 148.96H136.632ZM137.179 151.206C137.671 151.839 138.424 152.024 139.12 152.024V150.024C138.931 150.024 138.825 149.998 138.775 149.98C138.734 149.964 138.742 149.959 138.757 149.978L137.179 151.206ZM139.12 152.024C139.803 152.024 140.495 151.81 140.965 151.206L139.387 149.978C139.387 149.978 139.387 149.982 139.365 149.99C139.337 150.002 139.263 150.024 139.12 150.024V152.024ZM140.965 151.206C141.208 150.894 141.335 150.521 141.407 150.17C141.482 149.809 141.512 149.401 141.512 148.96H139.512C139.512 149.319 139.486 149.583 139.449 149.766C139.409 149.959 139.368 150.002 139.387 149.978L140.965 151.206ZM141.512 148.96V144.928H139.512V148.96H141.512ZM140.512 145.928H146.944V143.928H140.512V145.928ZM145.944 144.928V146.176H147.944V144.928H145.944ZM145.944 146.176C145.944 148.521 145.625 150.112 145.104 151.076L146.864 152.028C147.623 150.624 147.944 148.631 147.944 146.176H145.944ZM145.1 151.085C144.607 152.019 143.911 152.605 142.987 152.905L143.605 154.807C145.049 154.339 146.145 153.389 146.868 152.019L145.1 151.085ZM143.004 152.9C141.973 153.215 140.686 153.384 139.12 153.384V155.384C140.818 155.384 142.315 155.201 143.588 154.812L143.004 152.9ZM137.632 140.744H140.512V138.744H137.632V140.744ZM141.512 139.744V135.184H139.512V139.744H141.512ZM141.512 135.184C141.512 134.415 141.409 133.604 140.965 133.034L139.387 134.262C139.376 134.248 139.414 134.292 139.451 134.462C139.487 134.626 139.512 134.861 139.512 135.184H141.512ZM140.965 133.034C140.484 132.415 139.761 132.216 139.072 132.216V134.216C139.238 134.216 139.328 134.24 139.368 134.255C139.398 134.267 139.394 134.272 139.387 134.262L140.965 133.034ZM139.072 132.216C138.383 132.216 137.66 132.415 137.179 133.034L138.757 134.262C138.75 134.272 138.746 134.267 138.776 134.255C138.816 134.24 138.906 134.216 139.072 134.216V132.216ZM137.179 133.034C136.735 133.604 136.632 134.415 136.632 135.184H138.632C138.632 134.861 138.657 134.626 138.693 134.462C138.73 134.292 138.768 134.248 138.757 134.262L137.179 133.034ZM136.632 135.184V139.744H138.632V135.184H136.632ZM149.298 154H148.298V155H149.298V154ZM149.298 130.24V129.24H148.298V130.24H149.298ZM155.73 130.24H156.73V129.24H155.73V130.24ZM155.73 139.312H154.73V140.312H155.73V139.312ZM158.802 139.312V140.312H159.802V139.312H158.802ZM158.802 130.24V129.24H157.802V130.24H158.802ZM165.186 130.24H166.186V129.24H165.186V130.24ZM165.186 154V155H166.186V154H165.186ZM158.802 154H157.802V155H158.802V154ZM158.802 144.16H159.802V143.16H158.802V144.16ZM155.73 144.16V143.16H154.73V144.16H155.73ZM155.73 154V155H156.73V154H155.73ZM150.298 154V130.24H148.298V154H150.298ZM149.298 131.24H155.73V129.24H149.298V131.24ZM154.73 130.24V139.312H156.73V130.24H154.73ZM155.73 140.312H158.802V138.312H155.73V140.312ZM159.802 139.312V130.24H157.802V139.312H159.802ZM158.802 131.24H165.186V129.24H158.802V131.24ZM164.186 130.24V154H166.186V130.24H164.186ZM165.186 153H158.802V155H165.186V153ZM159.802 154V144.16H157.802V154H159.802ZM158.802 143.16H155.73V145.16H158.802V143.16ZM154.73 144.16V154H156.73V144.16H154.73ZM155.73 153H149.298V155H155.73V153ZM167.954 154H166.954V155H167.954V154ZM167.954 130.24V129.24H166.954V130.24H167.954ZM173.57 130.24H174.57V129.24H173.57V130.24ZM173.57 142.48H172.57L174.509 142.826L173.57 142.48ZM178.083 130.24V129.24H177.385L177.144 129.894L178.083 130.24ZM183.699 130.24H184.699V129.24H183.699V130.24ZM183.699 154V155H184.699V154H183.699ZM178.083 154H177.083V155H178.083V154ZM178.083 140.176H179.083L177.142 139.836L178.083 140.176ZM175.587 147.088L174.646 146.748L174.642 146.76L175.587 147.088ZM173.09 154V155H173.784L174.027 154.351L173.09 154ZM168.954 154V130.24H166.954V154H168.954ZM167.954 131.24H173.57V129.24H167.954V131.24ZM172.57 130.24V142.48H174.57V130.24H172.57ZM174.509 142.826L179.021 130.586L177.144 129.894L172.632 142.134L174.509 142.826ZM178.083 131.24H183.699V129.24H178.083V131.24ZM182.699 130.24V154H184.699V130.24H182.699ZM183.699 153H178.083V155H183.699V153ZM179.083 154V140.176H177.083V154H179.083ZM177.142 139.836C176.31 142.14 175.478 144.444 174.646 146.748L176.527 147.428C177.359 145.124 178.191 142.82 179.023 140.516L177.142 139.836ZM174.642 146.76C173.845 149.056 173.015 151.352 172.154 153.649L174.027 154.351C174.894 152.04 175.728 149.728 176.531 147.416L174.642 146.76ZM173.09 153H167.954V155H173.09V153ZM189.926 153.856L189.618 154.807L189.629 154.811L189.641 154.815L189.926 153.856ZM187.19 151.552L186.306 152.019L186.311 152.028L186.316 152.038L187.19 151.552ZM188.246 131.2L188.796 132.035L188.801 132.032L188.246 131.2ZM200.006 131.2L199.442 132.026L199.454 132.034L199.465 132.041L200.006 131.2ZM202.022 142.576V143.576H203.022V142.576H202.022ZM192.71 142.576V141.576H191.71V142.576H192.71ZM193.046 150.592L192.257 151.206L193.046 150.592ZM195.254 150.592L196.043 151.206L195.254 150.592ZM195.59 144.928V143.928H194.59V144.928H195.59ZM202.022 144.928H203.022V143.928H202.022V144.928ZM201.062 151.552L200.182 151.076L200.178 151.085L201.062 151.552ZM198.374 153.856L198.666 154.812L198.675 154.81L198.683 154.807L198.374 153.856ZM192.71 139.744H191.71V140.744H192.71V139.744ZM195.59 139.744V140.744H196.59V139.744H195.59ZM194.198 153.384C192.599 153.384 191.277 153.214 190.211 152.897L189.641 154.815C190.943 155.202 192.469 155.384 194.198 155.384V153.384ZM190.235 152.905C189.306 152.604 188.589 152.011 188.064 151.066L186.316 152.038C187.071 153.397 188.178 154.34 189.618 154.807L190.235 152.905ZM188.075 151.085C187.582 150.153 187.278 148.577 187.278 146.224H185.278C185.278 148.671 185.582 150.647 186.306 152.019L188.075 151.085ZM187.278 146.224V136H185.278V146.224H187.278ZM187.278 136C187.278 133.826 187.885 132.635 188.796 132.035L187.696 130.365C185.983 131.493 185.278 133.502 185.278 136H187.278ZM188.801 132.032C189.909 131.293 191.647 130.856 194.15 130.856V128.856C191.47 128.856 189.272 129.315 187.691 130.368L188.801 132.032ZM194.15 130.856C196.656 130.856 198.371 131.294 199.442 132.026L200.57 130.374C199.017 129.314 196.828 128.856 194.15 128.856V130.856ZM199.465 132.041C200.405 132.645 201.022 133.835 201.022 136H203.022C203.022 133.493 202.295 131.483 200.547 130.359L199.465 132.041ZM201.022 136V142.576H203.022V136H201.022ZM202.022 141.576H192.71V143.576H202.022V141.576ZM191.71 142.576V148.96H193.71V142.576H191.71ZM191.71 148.96C191.71 149.401 191.74 149.809 191.815 150.17C191.887 150.521 192.014 150.894 192.257 151.206L193.835 149.978C193.854 150.002 193.813 149.959 193.774 149.766C193.736 149.583 193.71 149.319 193.71 148.96H191.71ZM192.257 151.206C192.749 151.839 193.502 152.024 194.198 152.024V150.024C194.009 150.024 193.903 149.998 193.853 149.98C193.812 149.964 193.82 149.959 193.835 149.978L192.257 151.206ZM194.198 152.024C194.881 152.024 195.574 151.81 196.043 151.206L194.465 149.978C194.465 149.978 194.465 149.982 194.443 149.99C194.415 150.002 194.341 150.024 194.198 150.024V152.024ZM196.043 151.206C196.286 150.894 196.413 150.521 196.486 150.17C196.56 149.809 196.59 149.401 196.59 148.96H194.59C194.59 149.319 194.564 149.583 194.527 149.766C194.487 149.959 194.446 150.002 194.465 149.978L196.043 151.206ZM196.59 148.96V144.928H194.59V148.96H196.59ZM195.59 145.928H202.022V143.928H195.59V145.928ZM201.022 144.928V146.176H203.022V144.928H201.022ZM201.022 146.176C201.022 148.521 200.704 150.112 200.182 151.076L201.942 152.028C202.701 150.624 203.022 148.631 203.022 146.176H201.022ZM200.178 151.085C199.685 152.019 198.989 152.605 198.066 152.905L198.683 154.807C200.127 154.339 201.223 153.389 201.947 152.019L200.178 151.085ZM198.082 152.9C197.051 153.215 195.764 153.384 194.198 153.384V155.384C195.897 155.384 197.393 155.201 198.666 154.812L198.082 152.9ZM192.71 140.744H195.59V138.744H192.71V140.744ZM196.59 139.744V135.184H194.59V139.744H196.59ZM196.59 135.184C196.59 134.415 196.487 133.604 196.043 133.034L194.465 134.262C194.454 134.248 194.492 134.292 194.529 134.462C194.565 134.626 194.59 134.861 194.59 135.184H196.59ZM196.043 133.034C195.562 132.415 194.839 132.216 194.15 132.216V134.216C194.317 134.216 194.407 134.24 194.446 134.255C194.477 134.267 194.472 134.272 194.465 134.262L196.043 133.034ZM194.15 132.216C193.461 132.216 192.739 132.415 192.257 133.034L193.835 134.262C193.828 134.272 193.824 134.267 193.855 134.255C193.894 134.24 193.984 134.216 194.15 134.216V132.216ZM192.257 133.034C191.814 133.604 191.71 134.415 191.71 135.184H193.71C193.71 134.861 193.735 134.626 193.771 134.462C193.808 134.292 193.846 134.248 193.835 134.262L192.257 133.034ZM191.71 135.184V139.744H193.71V135.184H191.71Z" fill="black" mask="url(#path-14-outside-3_579_153)"/>
<defs>
<filter id="filter0_d_579_153" x="0" y="0" width="464" height="278" filterUnits="userSpaceOnUse" color-interpolation-filters="sRGB">
<feFlood flood-opacity="0" result="BackgroundImageFix"/>
<feColorMatrix in="SourceAlpha" type="matrix" values="0 0 0 0 0 0 0 0 0 0 0 0 0 0 0 0 0 0 127 0" result="hardAlpha"/>
<feOffset dy="4"/>
<feGaussianBlur stdDeviation="2"/>
<feComposite in2="hardAlpha" operator="out"/>
<feColorMatrix type="matrix" values="0 0 0 0 0 0 0 0 0 0 0 0 0 0 0 0 0 0 0.25 0"/>
<feBlend mode="normal" in2="BackgroundImageFix" result="effect1_dropShadow_579_153"/>
<feBlend mode="normal" in="SourceGraphic" in2="effect1_dropShadow_579_153" result="shape"/>
</filter>
<filter id="filter1_d_579_153" x="231.265" y="31.2255" width="217.856" height="217.856" filterUnits="userSpaceOnUse" color-interpolation-filters="sRGB">
<feFlood flood-opacity="0" result="BackgroundImageFix"/>
<feColorMatrix in="SourceAlpha" type="matrix" values="0 0 0 0 0 0 0 0 0 0 0 0 0 0 0 0 0 0 127 0" result="hardAlpha"/>
<feOffset dy="4"/>
<feGaussianBlur stdDeviation="2"/>
<feComposite in2="hardAlpha" operator="out"/>
<feColorMatrix type="matrix" values="0 0 0 0 0 0 0 0 0 0 0 0 0 0 0 0 0 0 0.25 0"/>
<feBlend mode="normal" in2="BackgroundImageFix" result="effect1_dropShadow_579_153"/>
<feBlend mode="normal" in="SourceGraphic" in2="effect1_dropShadow_579_153" result="shape"/>
</filter>
<filter id="filter2_d_579_153" x="391.079" y="113.798" width="58.0426" height="48.5112" filterUnits="userSpaceOnUse" color-interpolation-filters="sRGB">
<feFlood flood-opacity="0" result="BackgroundImageFix"/>
<feColorMatrix in="SourceAlpha" type="matrix" values="0 0 0 0 0 0 0 0 0 0 0 0 0 0 0 0 0 0 127 0" result="hardAlpha"/>
<feOffset dy="4"/>
<feGaussianBlur stdDeviation="2"/>
<feComposite in2="hardAlpha" operator="out"/>
<feColorMatrix type="matrix" values="0 0 0 0 0 0 0 0 0 0 0 0 0 0 0 0 0 0 0.25 0"/>
<feBlend mode="normal" in2="BackgroundImageFix" result="effect1_dropShadow_579_153"/>
<feBlend mode="normal" in="SourceGraphic" in2="effect1_dropShadow_579_153" result="shape"/>
</filter>
<filter id="filter3_d_579_153" x="231.265" y="113.798" width="58.0422" height="48.5112" filterUnits="userSpaceOnUse" color-interpolation-filters="sRGB">
<feFlood flood-opacity="0" result="BackgroundImageFix"/>
<feColorMatrix in="SourceAlpha" type="matrix" values="0 0 0 0 0 0 0 0 0 0 0 0 0 0 0 0 0 0 127 0" result="hardAlpha"/>
<feOffset dy="4"/>
<feGaussianBlur stdDeviation="2"/>
<feComposite in2="hardAlpha" operator="out"/>
<feColorMatrix type="matrix" values="0 0 0 0 0 0 0 0 0 0 0 0 0 0 0 0 0 0 0.25 0"/>
<feBlend mode="normal" in2="BackgroundImageFix" result="effect1_dropShadow_579_153"/>
<feBlend mode="normal" in="SourceGraphic" in2="effect1_dropShadow_579_153" result="shape"/>
</filter>
<linearGradient id="paint0_linear_579_153" x1="232" y1="-52.5" x2="209.08" y2="314.852" gradientUnits="userSpaceOnUse">
<stop stop-color="#282C55"/>
<stop offset="0.779" stop-color="white"/>
</linearGradient>
<clipPath id="clip0_579_153">
<rect width="218.387" height="218.387" fill="white" transform="translate(231 26.9601)"/>
</clipPath>
</defs>
</svg>
