<svg width="111" height="106" viewBox="0 0 111 106" fill="none" xmlns="http://www.w3.org/2000/svg">
<path d="M110.077 53C110.077 82.2711 85.4354 106 55.0385 106C24.6416 106 0 82.2711 0 53C0 23.7289 24.6416 0 55.0385 0C85.4354 0 110.077 23.7289 110.077 53Z" fill="url(#paint0_linear_575_179)"/>
<path d="M67.2156 62.4815L72.7319 79.4934C66.8337 81.7843 61.5296 85.3478 57.2014 89.972C49.9453 97.6931 47.763 105.344 43.0762 104.745C40.052 102.957 47.3569 89.1235 47.3569 89.1235L46.2112 74.2753L67.2156 62.4815Z" fill="#FFEDE5"/>
<path d="M46.7632 81.8267C46.7632 81.8267 56.4804 80.3843 61.4451 66.4269L46.1691 74.2753L46.7632 81.8267Z" fill="#86543D"/>
<path d="M39.5495 27.7366C39.5495 27.7366 30.1718 73.4692 35.0516 76.6086C39.9314 79.7479 59.1961 77.0328 66.3673 64.3057C73.5385 51.5786 64.5427 27.7366 39.5495 27.7366Z" fill="#FFEDE5"/>
<path d="M36.5367 43.9849C36.5367 43.9849 27.7106 55.3968 28.6017 56.4998C29.4928 57.6028 34.3302 59.1725 34.3302 59.1725L36.5367 43.9849Z" fill="#FFEDE5"/>
<path d="M63.015 57.3907C63.015 57.3907 58.602 55.1847 61.445 45.5545C61.445 45.5545 55.7165 35.4153 51.9824 33.7608C48.2483 32.1063 38.7432 31.5972 38.7432 31.5972C38.7432 31.5972 36.8337 18.2338 40.0162 16.8338C43.1987 15.4338 72.6474 16.2398 78.2061 26.6336C80.0732 30.1548 78.885 32.2759 78.885 32.2759C78.885 32.2759 82.0251 36.4334 81.4735 39.997C80.9218 43.5606 72.2654 56.7543 72.2654 56.7543L63.015 57.3907Z" fill="#3B2645"/>
<path d="M71.8221 60.8683C74.7718 57.9193 75.6047 53.9708 73.6824 52.049C71.7602 50.1272 67.8107 50.9599 64.8611 53.9088C61.9115 56.8578 61.0786 60.8064 63.0008 62.7282C64.9231 64.65 68.8725 63.8173 71.8221 60.8683Z" fill="#FFEDE5"/>
<path d="M38.7856 66.5118C36.7913 66.5118 35.0091 65.9603 34.8818 65.9178C34.6696 65.833 34.5423 65.6209 34.6272 65.3663C34.712 65.1542 34.9242 65.0269 35.1788 65.1118C35.2212 65.1118 40.9922 66.9784 42.9865 63.9239C43.1138 63.7118 43.3684 63.6694 43.5806 63.7966C43.7928 63.9239 43.8352 64.1784 43.7079 64.3906C42.5622 66.0451 40.6103 66.5118 38.7856 66.5118Z" fill="#472938"/>
<path d="M65.2642 59.3422C65.1368 59.3422 64.9671 59.2573 64.9247 59.1301C64.7974 58.918 64.8398 58.6634 65.052 58.5361L68.4891 56.3725C68.7013 56.2452 68.9559 56.2877 69.0832 56.4998C69.2105 56.7119 69.1681 56.9664 68.9559 57.0937L65.5187 59.2574C65.4339 59.2998 65.349 59.3422 65.2642 59.3422Z" fill="#472938"/>
<path d="M42.3922 44.0273C43.2833 44.2394 43.835 45.1303 43.6228 45.9787L43.3682 47.1242C43.156 48.0151 42.2649 48.5666 41.4163 48.3545C40.5252 48.1423 39.9736 47.2514 40.1857 46.403L40.4403 45.2575C40.6525 44.3667 41.5011 43.8151 42.3922 44.0273Z" fill="#3B2645"/>
<path d="M40.6104 39.5728C40.6104 39.5728 46.2115 39.191 47.6543 43.7728C47.6543 43.7728 47.4845 38.9788 43.9626 38.2576C40.4406 37.5364 39.2949 39.3606 40.6104 39.5728Z" fill="#3B2645"/>
<path d="M72.8896 78.0743L84.1717 84.3465L83.5164 95.9966C83.5164 95.9966 72.6613 96.2001 72.7319 103.202L64.2115 105.267L55.0385 106L52.6211 105.95L43.0762 104.745C43.0762 104.745 37.1275 103.231 46.1049 87.3062L58.796 81.3264L72.8896 78.0743Z" fill="#FF8A00"/>
<path d="M40.4403 101.722C45.9155 97.4316 49.3312 100.085 43.0762 104.745C43.2616 99.7975 41.707 97.7793 43.0762 93.6683C43.1044 93.5804 43.2241 93.5156 43.362 93.5412C43.4768 93.5656 43.5644 93.66 43.5352 93.7657C42.1912 97.8423 43.2364 99.8319 43.0762 104.745C44.6097 102.424 42.2395 99.2196 40.4403 101.722Z" fill="#472938"/>
<path d="M83.5164 95.9966L74.5228 94.4527L72.7319 103.202L76.4423 101.843L83.5164 98.3629V95.9966Z" fill="#86543D"/>
<defs>
<linearGradient id="paint0_linear_575_179" x1="63.1923" y1="-64.2115" x2="84.5962" y2="144.731" gradientUnits="userSpaceOnUse">
<stop offset="0.3" stop-color="white"/>
<stop offset="0.5" stop-color="#B9FF66"/>
</linearGradient>
</defs>
</svg>
