<svg width="17" height="16" viewBox="0 0 17 16" fill="none" xmlns="http://www.w3.org/2000/svg">
<path d="M15.5447 15.7536L9.72951 10.3261C9.26799 10.6707 8.73724 10.9435 8.13726 11.1445C7.53728 11.3455 6.89884 11.446 6.22194 11.446C4.54508 11.446 3.12591 10.904 1.96441 9.81993C0.802916 8.73587 0.222168 7.41131 0.222168 5.84624C0.222168 4.28117 0.802916 2.9566 1.96441 1.87254C3.12591 0.788476 4.54508 0.246445 6.22194 0.246445C7.89881 0.246445 9.31798 0.788476 10.4795 1.87254C11.641 2.9566 12.2217 4.28117 12.2217 5.84624C12.2217 6.47801 12.114 7.07388 11.8987 7.63386C11.6833 8.19384 11.391 8.68921 11.0218 9.11996L16.8369 14.5475L15.5447 15.7536ZM6.22194 9.72301C7.37575 9.72301 8.35648 9.34611 9.16414 8.59229C9.9718 7.83847 10.3756 6.92312 10.3756 5.84624C10.3756 4.76935 9.9718 3.854 9.16414 3.10018C8.35648 2.34637 7.37575 1.96946 6.22194 1.96946C5.06814 1.96946 4.08741 2.34637 3.27975 3.10018C2.47208 3.854 2.06825 4.76935 2.06825 5.84624C2.06825 6.92312 2.47208 7.83847 3.27975 8.59229C4.08741 9.34611 5.06814 9.72301 6.22194 9.72301Z" fill="black"/>
</svg>
